<?xml version="1.0" encoding="utf-8"?>
<!-- Generator: Adobe Illustrator 19.0.0, SVG Export Plug-In . SVG Version: 6.00 Build 0)  -->
<svg version="1.1" id="Layer_1" xmlns="http://www.w3.org/2000/svg" xmlns:xlink="http://www.w3.org/1999/xlink" x="0px" y="0px"
	 viewBox="334 -197.7 817.8 544.7" style="enable-background:new 334 -197.7 817.8 544.7;" xml:space="preserve">
<style type="text/css">
	.st0{fill:#4D4D4D;}
	.st1{fill:#333333;}
	.st2{fill:#C5E1A5;}
	.st3{fill:#FFFFFF;stroke:#333333;stroke-miterlimit:10;}
	.st4{fill:#424242;}
	.st5{fill:#FF8F00;}
	.st6{fill:#26C6DA;}
	.st7{fill:#CCCCCC;stroke:#333333;stroke-miterlimit:10;}
	.st8{fill:#FF7043;}
	.st9{fill:#2196F3;}
	.st10{fill:#F2F2F2;stroke:#333333;stroke-miterlimit:10;}
	.st11{fill:#ECECEC;stroke:#333333;stroke-miterlimit:10;}
	.st12{fill:#66BB6A;}
	.st13{fill:#1E88E5;}
	.st14{fill:#F06292;}
	.st15{fill:#D81B60;}
	.st16{fill:#999999;}
	.st17{fill:#AED581;}
	.st18{fill:#E91E63;}
	.st19{fill:#EC407A;}
	.st20{fill:#4CAF50;}
</style>
<g transform="translate(296.98 64.867)">
	<path class="st0" d="M158.7,191.9h54.7v85.8c-17.1-1-35,1.7-54.7,0V191.9z"/>
	<path class="st1" d="M158.7,191.9h54.7v45.2c-17.1-0.5-35,0.9-54.7,0V191.9z"/>
	<rect x="47.3" y="-149.4" class="st2" width="277.1" height="362.5"/>
	<rect x="76.4" y="-149.4" class="st3" width="218.9" height="362.5"/>
	<path class="st0" d="M37,226.5h298.1v-381.2H37V226.5z M52.4,207.8v-346.6h266v347.2L52.4,207.8z"/>
	<path class="st4" d="M102.2,283.1h167.6c0.9,0,2-0.3,1.6-0.6l-8.2-7.5c-0.3-0.3-3.8-0.6-4.7-0.6h-145c-0.9,0-4.4,0.3-4.7,0.6
		l-8.2,7.5C100.3,282.8,101.3,283.1,102.2,283.1z"/>
	<rect x="89.5" y="-126.3" class="st5" width="112.3" height="8.9"/>
	<rect x="95.6" y="-91.6" class="st6" width="24.5" height="5.1"/>
	<path class="st6" d="M95.7-86.5c-0.2,0.1-1.6-0.9-1.8-1s-1.5-1.2-1.5-1.5s1.4-1.4,1.6-1.6c0.2-0.1,1.6-1.1,1.7-1
		c0.2,0.1,0.2,2.3,0.2,2.6C95.9-88.7,95.8-86.6,95.7-86.5L95.7-86.5z"/>
	<path class="st6" d="M120-86.5c0.2,0.1,1.6-0.9,1.8-1s1.5-1.2,1.5-1.5s-1.4-1.4-1.6-1.6c-0.2-0.1-1.6-1.1-1.7-1
		c-0.2,0.1-0.2,2.3-0.2,2.6C119.8-88.7,119.9-86.6,120-86.5L120-86.5z"/>
	<rect x="109.2" y="-81.7" class="st6" width="24.5" height="5.1"/>
	<path class="st6" d="M109.3-76.7c-0.2,0.1-1.6-0.9-1.8-1s-1.5-1.2-1.5-1.5s1.4-1.4,1.6-1.6c0.2-0.1,1.6-1.1,1.7-1
		c0.2,0.1,0.2,2.3,0.2,2.6C109.5-78.9,109.4-76.8,109.3-76.7L109.3-76.7z"/>
	<path class="st6" d="M133.6-76.7c0.2,0.1,1.6-0.9,1.8-1s1.5-1.2,1.5-1.5s-1.4-1.4-1.6-1.6c-0.2-0.1-1.6-1.1-1.7-1
		c-0.2,0.1-0.2,2.3-0.2,2.6C133.4-78.9,133.5-76.8,133.6-76.7L133.6-76.7z"/>
	<rect x="119.7" y="-72.4" class="st6" width="24.5" height="5.1"/>
	<path class="st6" d="M119.8-67.4c-0.2,0.1-1.6-0.9-1.8-1s-1.5-1.2-1.5-1.5s1.4-1.4,1.6-1.6c0.2-0.1,1.6-1.1,1.7-1
		c0.2,0.1,0.2,2.3,0.2,2.6C120.1-69.6,120-67.5,119.8-67.4L119.8-67.4z"/>
	<path class="st6" d="M144.2-67.4c0.2,0.1,1.6-0.9,1.8-1s1.5-1.2,1.5-1.5s-1.4-1.4-1.6-1.6c-0.2-0.1-1.6-1.1-1.7-1
		c-0.2,0.1-0.2,2.3-0.2,2.6S144-67.5,144.2-67.4L144.2-67.4z"/>
	<rect x="120" y="-62.9" class="st6" width="24.5" height="5.1"/>
	<path class="st6" d="M120.1-57.8c-0.2,0.1-1.6-0.9-1.8-1s-1.5-1.2-1.5-1.5s1.4-1.4,1.6-1.6c0.2-0.1,1.6-1.1,1.7-1
		c0.2,0.1,0.2,2.3,0.2,2.6S120.3-57.9,120.1-57.8L120.1-57.8z"/>
	<path class="st6" d="M144.4-57.8c0.2,0.1,1.6-0.9,1.8-1s1.5-1.2,1.5-1.5s-1.4-1.4-1.6-1.6c-0.2-0.1-1.6-1.1-1.7-1
		c-0.2,0.1-0.2,2.3-0.2,2.6C144.2-60,144.3-57.9,144.4-57.8L144.4-57.8z"/>
	<rect x="120.2" y="-53.5" class="st6" width="24.5" height="5.1"/>
	<path class="st6" d="M120.3-48.5c-0.2,0.1-1.6-0.9-1.8-1S117-50.7,117-51s1.4-1.4,1.6-1.6c0.2-0.1,1.6-1.1,1.7-1
		c0.2,0.1,0.2,2.3,0.2,2.6C120.6-50.7,120.5-48.6,120.3-48.5L120.3-48.5z"/>
	<path class="st6" d="M144.7-48.5c0.2,0.1,1.6-0.9,1.8-1s1.5-1.2,1.5-1.5s-1.4-1.4-1.6-1.6c-0.2-0.1-1.6-1.1-1.7-1
		c-0.2,0.1-0.2,2.3-0.2,2.6C144.5-50.7,144.5-48.6,144.7-48.5L144.7-48.5z"/>
	<rect x="120.2" y="-44" class="st6" width="24.5" height="5.1"/>
	<path class="st6" d="M120.3-38.9c-0.2,0.1-1.6-0.9-1.8-1s-1.5-1.2-1.5-1.5s1.4-1.4,1.6-1.6c0.2-0.1,1.6-1.1,1.7-1
		c0.2,0.1,0.2,2.3,0.2,2.6C120.6-41.2,120.5-39,120.3-38.9L120.3-38.9z"/>
	<path class="st6" d="M144.7-38.9c0.2,0.1,1.6-0.9,1.8-1s1.5-1.2,1.5-1.5s-1.4-1.4-1.6-1.6c-0.2-0.1-1.6-1.1-1.7-1
		c-0.2,0.1-0.2,2.3-0.2,2.6C144.5-41.2,144.5-39,144.7-38.9L144.7-38.9z"/>
	<rect x="120.2" y="-10.3" class="st6" width="24.5" height="5.1"/>
	<path class="st6" d="M120.3-5.2c-0.2,0.1-1.6-0.9-1.8-1S117-7.4,117-7.7s1.4-1.4,1.6-1.6c0.2-0.1,1.6-1.1,1.7-1
		c0.2,0.1,0.2,2.3,0.2,2.6C120.6-7.4,120.5-5.3,120.3-5.2L120.3-5.2z"/>
	<path class="st6" d="M144.7-5.2c0.2,0.1,1.6-0.9,1.8-1s1.5-1.2,1.5-1.5s-1.4-1.4-1.6-1.6c-0.2-0.1-1.6-1.1-1.7-1
		c-0.2,0.1-0.2,2.3-0.2,2.6C144.5-7.4,144.5-5.3,144.7-5.2L144.7-5.2z"/>
	<rect x="121.3" y="-0.7" class="st6" width="24.5" height="5.1"/>
	<path class="st6" d="M121.4,4.4c-0.2,0.1-1.6-0.9-1.8-1s-1.5-1.2-1.5-1.5s1.4-1.4,1.6-1.6c0.2-0.1,1.6-1.1,1.7-1
		c0.2,0.1,0.2,2.3,0.2,2.6C121.6,2.1,121.5,4.2,121.4,4.4L121.4,4.4z"/>
	<path class="st6" d="M145.7,4.4c0.2,0.1,1.6-0.9,1.8-1s1.5-1.2,1.5-1.5s-1.4-1.4-1.6-1.6c-0.2-0.1-1.6-1.1-1.7-1
		c-0.2,0.1-0.2,2.3-0.2,2.6C145.5,2.1,145.5,4.2,145.7,4.4L145.7,4.4z"/>
	<rect x="109.2" y="9.9" class="st6" width="24.5" height="5.1"/>
	<path class="st6" d="M109.3,14.9c-0.2,0.1-1.6-0.9-1.8-1s-1.5-1.2-1.5-1.5s1.4-1.4,1.6-1.6c0.2-0.1,1.6-1.1,1.7-1
		c0.2,0.1,0.2,2.3,0.2,2.6C109.5,12.7,109.4,14.8,109.3,14.9L109.3,14.9z"/>
	<path class="st6" d="M133.6,14.9c0.2,0.1,1.6-0.9,1.8-1s1.5-1.2,1.5-1.5s-1.4-1.4-1.6-1.6c-0.2-0.1-1.6-1.1-1.7-1
		c-0.2,0.1-0.2,2.3-0.2,2.6C133.4,12.7,133.5,14.8,133.6,14.9L133.6,14.9z"/>
	<rect x="109.2" y="22.5" class="st6" width="24.5" height="5.1"/>
	<path class="st6" d="M109.3,27.5c-0.2,0.1-1.6-0.9-1.8-1S106,25.3,106,25s1.4-1.4,1.6-1.6c0.2-0.1,1.6-1.1,1.7-1
		c0.2,0.1,0.2,2.3,0.2,2.6C109.5,25.3,109.4,27.4,109.3,27.5L109.3,27.5z"/>
	<path class="st6" d="M133.6,27.5c0.2,0.1,1.6-0.9,1.8-1s1.5-1.2,1.5-1.5s-1.4-1.4-1.6-1.6c-0.2-0.1-1.6-1.1-1.7-1
		c-0.2,0.1-0.2,2.3-0.2,2.6C133.4,25.3,133.5,27.4,133.6,27.5L133.6,27.5z"/>
	<rect x="154.4" y="-44" class="st7" width="117.3" height="5.1"/>
	<path class="st7" d="M154.5-38.9c-0.2,0.1-1.6-0.9-1.8-1s-1.5-1.2-1.5-1.5s1.4-1.4,1.6-1.6c0.2-0.1,1.6-1.1,1.7-1
		c0.2,0.1,0.2,2.3,0.2,2.6C154.7-41.2,154.7-39,154.5-38.9L154.5-38.9z"/>
	<path class="st7" d="M271.5-38.9c0.2,0.1,1.6-0.9,1.8-1s1.5-1.2,1.5-1.5s-1.4-1.4-1.6-1.6c-0.2-0.1-1.6-1.1-1.7-1
		c-0.2,0.1-0.2,2.3-0.2,2.6C271.3-41.2,271.3-39,271.5-38.9L271.5-38.9z"/>
	<rect x="120.8" y="-34.9" class="st7" width="150.7" height="5.1"/>
	<path class="st7" d="M121-29.9c-0.2,0.1-2.1-0.9-2.3-1s-2-1.2-1.9-1.5c0-0.3,1.8-1.4,2-1.6c0.2-0.1,2-1.1,2.2-1s0.3,2.3,0.3,2.6
		C121.2-32.1,121.2-30,121-29.9L121-29.9z"/>
	<path class="st7" d="M271.1-29.9c0.2,0.1,2.1-0.9,2.3-1s2-1.2,1.9-1.5c0-0.3-1.8-1.4-2-1.6c-0.2-0.1-2-1.1-2.2-1s-0.3,2.3-0.3,2.6
		S270.8-30,271.1-29.9L271.1-29.9z"/>
	<rect x="120.8" y="-26.4" class="st7" width="150.7" height="5.1"/>
	<path class="st7" d="M121-21.3c-0.2,0.1-2.1-0.9-2.3-1s-2-1.2-1.9-1.5c0-0.3,1.8-1.4,2-1.6c0.2-0.1,2-1.1,2.2-1s0.3,2.3,0.3,2.6
		C121.2-23.5,121.2-21.4,121-21.3L121-21.3z"/>
	<path class="st7" d="M271.1-21.3c0.2,0.1,2.1-0.9,2.3-1s2-1.2,1.9-1.5c0-0.3-1.8-1.4-2-1.6c-0.2-0.1-2-1.1-2.2-1s-0.3,2.3-0.3,2.6
		S270.8-21.4,271.1-21.3L271.1-21.3z"/>
	<rect x="120.4" y="-18.6" class="st7" width="133.5" height="5.1"/>
	<path class="st7" d="M120.5-13.5c-0.2,0.1-1.9-0.9-2.1-1c-0.2-0.1-1.7-1.2-1.7-1.5s1.6-1.4,1.8-1.6c0.2-0.1,1.8-1.1,2-1
		s0.3,2.3,0.3,2.6C120.7-15.7,120.7-13.6,120.5-13.5L120.5-13.5z"/>
	<path class="st7" d="M253.4-13.5c0.2,0.1,1.9-0.9,2.1-1c0.2-0.1,1.7-1.2,1.7-1.5s-1.6-1.4-1.8-1.6c-0.2-0.1-1.8-1.1-2-1
		s-0.3,2.3-0.3,2.6C253.2-15.7,253.2-13.6,253.4-13.5L253.4-13.5z"/>
	<rect x="155" y="-63.1" class="st8" width="24.5" height="5.1"/>
	<path class="st8" d="M155.1-58.1c-0.2,0.1-1.6-0.9-1.8-1s-1.5-1.2-1.5-1.5s1.4-1.4,1.6-1.6c0.2-0.1,1.6-1.1,1.7-1
		c0.2,0.1,0.2,2.3,0.2,2.6C155.3-60.3,155.2-58.2,155.1-58.1L155.1-58.1z"/>
	<path class="st8" d="M179.4-58.1c0.2,0.1,1.6-0.9,1.8-1s1.5-1.2,1.5-1.5s-1.4-1.4-1.6-1.6c-0.2-0.1-1.6-1.1-1.7-1
		c-0.2,0.1-0.2,2.3-0.2,2.6C179.2-60.3,179.3-58.2,179.4-58.1L179.4-58.1z"/>
	<rect x="216.1" y="-63.1" class="st8" width="24.5" height="5.1"/>
	<path class="st8" d="M216.2-58.1c-0.2,0.1-1.6-0.9-1.8-1s-1.5-1.2-1.5-1.5s1.4-1.4,1.6-1.6c0.2-0.1,1.6-1.1,1.7-1
		c0.2,0.1,0.2,2.3,0.2,2.6C216.5-60.3,216.4-58.2,216.2-58.1L216.2-58.1z"/>
	<path class="st8" d="M240.6-58.1c0.2,0.1,1.6-0.9,1.8-1s1.5-1.2,1.5-1.5s-1.4-1.4-1.6-1.6c-0.2-0.1-1.6-1.1-1.7-1
		c-0.2,0.1-0.2,2.3-0.2,2.6C240.4-60.3,240.4-58.2,240.6-58.1L240.6-58.1z"/>
	<rect x="248.9" y="-63.1" class="st6" width="24.5" height="5.1"/>
	<path class="st6" d="M249-58.1c-0.2,0.1-1.6-0.9-1.8-1s-1.5-1.2-1.5-1.5s1.4-1.4,1.6-1.6c0.2-0.1,1.6-1.1,1.7-1
		c0.2,0.1,0.2,2.3,0.2,2.6C249.2-60.3,249.1-58.2,249-58.1L249-58.1z"/>
	<path class="st6" d="M273.3-58.1c0.2,0.1,1.6-0.9,1.8-1s1.5-1.2,1.5-1.5s-1.4-1.4-1.6-1.6c-0.2-0.1-1.6-1.1-1.7-1
		c-0.2,0.1-0.2,2.3-0.2,2.6C273.1-60.3,273.1-58.2,273.3-58.1L273.3-58.1z"/>
	<rect x="187.9" y="-63.1" class="st7" width="20.5" height="5.1"/>
	<path class="st7" d="M188-58.1c-0.1,0.1-1.4-0.9-1.5-1s-1.3-1.2-1.3-1.5s1.2-1.4,1.3-1.6c0.1-0.1,1.3-1.1,1.4-1
		c0.1,0.1,0.2,2.3,0.2,2.6C188.2-60.3,188.2-58.2,188-58.1L188-58.1z"/>
	<path class="st7" d="M208.4-58.1c0.1,0.1,1.4-0.9,1.5-1s1.3-1.2,1.3-1.5s-1.2-1.4-1.3-1.6c-0.1-0.1-1.3-1.1-1.4-1
		c-0.1,0.1-0.2,2.3-0.2,2.6C208.2-60.3,208.3-58.2,208.4-58.1L208.4-58.1z"/>
	<rect x="143.7" y="9.9" class="st8" width="40.2" height="5.1"/>
	<path class="st8" d="M143.8,14.9c-0.2,0.1-1.6-0.9-1.8-1s-1.5-1.2-1.5-1.5s1.4-1.4,1.6-1.6c0.2-0.1,1.6-1.1,1.7-1
		c0.2,0.1,0.2,2.3,0.2,2.6C144,12.7,143.9,14.8,143.8,14.9L143.8,14.9z"/>
	<path class="st8" d="M183.7,14.9c0.2,0.1,1.6-0.9,1.8-1s1.5-1.2,1.5-1.5s-1.4-1.4-1.6-1.6c-0.2-0.1-1.6-1.1-1.7-1
		c-0.2,0.1-0.2,2.3-0.2,2.6C183.5,12.7,183.5,14.8,183.7,14.9L183.7,14.9z"/>
	<rect x="144" y="22" class="st8" width="40.2" height="5.1"/>
	<path class="st8" d="M144.1,27c-0.2,0.1-1.6-0.9-1.8-1s-1.5-1.2-1.5-1.5s1.4-1.4,1.6-1.6c0.2-0.1,1.6-1.1,1.7-1
		c0.2,0.1,0.2,2.3,0.2,2.6C144.3,24.8,144.3,26.9,144.1,27L144.1,27z"/>
	<path class="st8" d="M184.1,27c0.2,0.1,1.6-0.9,1.8-1s1.5-1.2,1.5-1.5s-1.4-1.4-1.6-1.6c-0.2-0.1-1.6-1.1-1.7-1
		c-0.2,0.1-0.2,2.3-0.2,2.6C183.9,24.8,183.9,26.9,184.1,27L184.1,27z"/>
	<rect x="121.3" y="33.8" class="st6" width="24.5" height="5.1"/>
	<path class="st6" d="M121.4,38.9c-0.2,0.1-1.6-0.9-1.8-1s-1.5-1.2-1.5-1.5s1.4-1.4,1.6-1.6c0.2-0.1,1.6-1.1,1.7-1
		c0.2,0.1,0.2,2.3,0.2,2.6C121.6,36.6,121.5,38.7,121.4,38.9L121.4,38.9z"/>
	<path class="st6" d="M145.7,38.9c0.2,0.1,1.6-0.9,1.8-1s1.5-1.2,1.5-1.5s-1.4-1.4-1.6-1.6c-0.2-0.1-1.6-1.1-1.7-1
		c-0.2,0.1-0.2,2.3-0.2,2.6C145.5,36.6,145.5,38.7,145.7,38.9L145.7,38.9z"/>
	<rect x="156.1" y="33.3" class="st8" width="64.3" height="5.1"/>
	<path class="st8" d="M156.2,38.3c-0.2,0.1-1.6-0.9-1.8-1s-1.5-1.2-1.5-1.5s1.4-1.4,1.6-1.6c0.2-0.1,1.6-1.1,1.7-1
		c0.2,0.1,0.2,2.3,0.2,2.6C156.4,36.1,156.4,38.2,156.2,38.3L156.2,38.3z"/>
	<path class="st8" d="M219.8,38.3c0.2,0.1,1.6-0.9,1.8-1s1.5-1.2,1.5-1.5s-1.4-1.4-1.6-1.6c-0.2-0.1-1.6-1.1-1.7-1
		c-0.2,0.1-0.2,2.3-0.2,2.6C219.6,36.1,219.7,38.2,219.8,38.3L219.8,38.3z"/>
	<rect x="121.3" y="43.4" class="st6" width="24.5" height="5.1"/>
	<path class="st6" d="M121.4,48.4c-0.2,0.1-1.6-0.9-1.8-1s-1.5-1.2-1.5-1.5s1.4-1.4,1.6-1.6c0.2-0.1,1.6-1.1,1.7-1
		c0.2,0.1,0.2,2.3,0.2,2.6C121.6,46.2,121.5,48.3,121.4,48.4L121.4,48.4z"/>
	<path class="st6" d="M145.7,48.4c0.2,0.1,1.6-0.9,1.8-1s1.5-1.2,1.5-1.5s-1.4-1.4-1.6-1.6c-0.2-0.1-1.6-1.1-1.7-1
		c-0.2,0.1-0.2,2.3-0.2,2.6C145.5,46.2,145.5,48.3,145.7,48.4L145.7,48.4z"/>
	<rect x="89.5" y="-113.5" class="st5" width="92" height="2.8"/>
	<rect x="76.4" y="-104.1" class="st9" width="218.9" height="1.9"/>
	<rect x="193.4" y="9.6" class="st7" width="64.3" height="5.1"/>
	<path class="st7" d="M193.5,14.7c-0.2,0.1-1.6-0.9-1.8-1s-1.5-1.2-1.5-1.5s1.4-1.4,1.6-1.6c0.2-0.1,1.6-1.1,1.7-1
		c0.2,0.1,0.2,2.3,0.2,2.6S193.6,14.6,193.5,14.7L193.5,14.7z"/>
	<path class="st7" d="M257.1,14.7c0.2,0.1,1.6-0.9,1.8-1s1.5-1.2,1.5-1.5s-1.4-1.4-1.6-1.6c-0.2-0.1-1.6-1.1-1.7-1
		c-0.2,0.1-0.2,2.3-0.2,2.6S256.9,14.6,257.1,14.7L257.1,14.7z"/>
	<rect x="194.4" y="21.2" class="st7" width="64.3" height="5.1"/>
	<path class="st7" d="M194.5,26.3c-0.2,0.1-1.6-0.9-1.8-1s-1.5-1.2-1.5-1.5s1.4-1.4,1.6-1.6c0.2-0.1,1.6-1.1,1.7-1
		c0.2,0.1,0.2,2.3,0.2,2.6C194.7,24,194.6,26.1,194.5,26.3L194.5,26.3z"/>
	<path class="st7" d="M258.1,26.3c0.2,0.1,1.6-0.9,1.8-1s1.5-1.2,1.5-1.5s-1.4-1.4-1.6-1.6c-0.2-0.1-1.6-1.1-1.7-1
		c-0.2,0.1-0.2,2.3-0.2,2.6C257.9,24,257.9,26.1,258.1,26.3L258.1,26.3z"/>
	<rect x="230" y="33.8" class="st7" width="24.5" height="5.1"/>
	<path class="st7" d="M230.1,38.9c-0.2,0.1-1.6-0.9-1.8-1s-1.5-1.2-1.5-1.5s1.4-1.4,1.6-1.6c0.2-0.1,1.6-1.1,1.7-1
		c0.2,0.1,0.2,2.3,0.2,2.6C230.3,36.6,230.2,38.7,230.1,38.9L230.1,38.9z"/>
	<path class="st7" d="M254.4,38.9c0.2,0.1,1.6-0.9,1.8-1s1.5-1.2,1.5-1.5s-1.4-1.4-1.6-1.6c-0.2-0.1-1.6-1.1-1.7-1
		c-0.2,0.1-0.2,2.3-0.2,2.6C254.2,36.6,254.3,38.7,254.4,38.9L254.4,38.9z"/>
	<rect x="156.8" y="43.6" class="st7" width="114" height="5.1"/>
	<path class="st7" d="M156.9,48.7c-0.2,0.1-1.6-0.9-1.8-1s-1.5-1.2-1.5-1.5s1.4-1.4,1.5-1.6c0.2-0.1,1.5-1.1,1.7-1s0.2,2.3,0.2,2.6
		C157.1,46.4,157.1,48.6,156.9,48.7L156.9,48.7z"/>
	<path class="st7" d="M270.6,48.7c0.2,0.1,1.6-0.9,1.8-1s1.5-1.2,1.5-1.5s-1.4-1.4-1.5-1.6c-0.2-0.1-1.5-1.1-1.7-1s-0.2,2.3-0.2,2.6
		C270.4,46.4,270.4,48.6,270.6,48.7L270.6,48.7z"/>
	<rect x="122.3" y="54.4" class="st6" width="24.5" height="5.1"/>
	<path class="st6" d="M122.4,59.4c-0.2,0.1-1.6-0.9-1.8-1s-1.5-1.2-1.5-1.5s1.4-1.4,1.6-1.6c0.2-0.1,1.6-1.1,1.7-1
		c0.2,0.1,0.2,2.3,0.2,2.6C122.7,57.2,122.6,59.3,122.4,59.4L122.4,59.4z"/>
	<path class="st6" d="M146.8,59.4c0.2,0.1,1.6-0.9,1.8-1s1.5-1.2,1.5-1.5s-1.4-1.4-1.6-1.6c-0.2-0.1-1.6-1.1-1.7-1
		c-0.2,0.1-0.2,2.3-0.2,2.6C146.6,57.2,146.6,59.3,146.8,59.4L146.8,59.4z"/>
	<rect x="122.3" y="67" class="st6" width="24.5" height="5.1"/>
	<path class="st6" d="M122.4,72c-0.2,0.1-1.6-0.9-1.8-1s-1.5-1.2-1.5-1.5s1.4-1.4,1.6-1.6c0.2-0.1,1.6-1.1,1.7-1
		c0.2,0.1,0.2,2.3,0.2,2.6C122.7,69.8,122.6,71.9,122.4,72L122.4,72z"/>
	<path class="st6" d="M146.8,72c0.2,0.1,1.6-0.9,1.8-1s1.5-1.2,1.5-1.5s-1.4-1.4-1.6-1.6c-0.2-0.1-1.6-1.1-1.7-1
		c-0.2,0.1-0.2,2.3-0.2,2.6C146.6,69.8,146.6,71.9,146.8,72L146.8,72z"/>
	<rect x="156.8" y="54.4" class="st8" width="40.2" height="5.1"/>
	<path class="st8" d="M156.9,59.4c-0.2,0.1-1.6-0.9-1.8-1s-1.5-1.2-1.5-1.5s1.4-1.4,1.6-1.6c0.2-0.1,1.6-1.1,1.7-1
		c0.2,0.1,0.2,2.3,0.2,2.6C157.1,57.2,157.1,59.3,156.9,59.4L156.9,59.4z"/>
	<path class="st8" d="M196.9,59.4c0.2,0.1,1.6-0.9,1.8-1s1.5-1.2,1.5-1.5s-1.4-1.4-1.6-1.6c-0.2-0.1-1.6-1.1-1.7-1
		c-0.2,0.1-0.2,2.3-0.2,2.6C196.7,57.2,196.7,59.3,196.9,59.4L196.9,59.4z"/>
	<rect x="157.2" y="66.5" class="st8" width="40.2" height="5.1"/>
	<path class="st8" d="M157.3,71.5c-0.2,0.1-1.6-0.9-1.8-1S154,69.3,154,69s1.4-1.4,1.6-1.6c0.2-0.1,1.6-1.1,1.7-1
		c0.2,0.1,0.2,2.3,0.2,2.6C157.5,69.3,157.5,71.4,157.3,71.5L157.3,71.5z"/>
	<path class="st8" d="M197.3,71.5c0.2,0.1,1.6-0.9,1.8-1s1.5-1.2,1.5-1.5s-1.4-1.4-1.6-1.6c-0.2-0.1-1.6-1.1-1.7-1
		c-0.2,0.1-0.2,2.3-0.2,2.6C197,69.3,197.1,71.4,197.3,71.5L197.3,71.5z"/>
	<rect x="206.5" y="54.1" class="st7" width="64.3" height="5.1"/>
	<path class="st7" d="M206.6,59.2c-0.2,0.1-1.6-0.9-1.8-1s-1.5-1.2-1.5-1.5s1.4-1.4,1.6-1.6c0.2-0.1,1.6-1.1,1.7-1
		c0.2,0.1,0.2,2.3,0.2,2.6C206.9,57,206.8,59.1,206.6,59.2L206.6,59.2z"/>
	<path class="st7" d="M270.3,59.2c0.2,0.1,1.6-0.9,1.8-1s1.5-1.2,1.5-1.5s-1.4-1.4-1.6-1.6c-0.2-0.1-1.6-1.1-1.7-1
		c-0.2,0.1-0.2,2.3-0.2,2.6C270,57,270.1,59.1,270.3,59.2L270.3,59.2z"/>
	<rect x="207.5" y="65.7" class="st7" width="64.3" height="5.1"/>
	<path class="st7" d="M207.6,70.8c-0.2,0.1-1.6-0.9-1.8-1s-1.5-1.2-1.5-1.5s1.4-1.4,1.6-1.6c0.2-0.1,1.6-1.1,1.7-1
		c0.2,0.1,0.2,2.3,0.2,2.6C207.9,68.5,207.8,70.6,207.6,70.8L207.6,70.8z"/>
	<path class="st7" d="M271.3,70.8c0.2,0.1,1.6-0.9,1.8-1s1.5-1.2,1.5-1.5s-1.4-1.4-1.6-1.6c-0.2-0.1-1.6-1.1-1.7-1
		c-0.2,0.1-0.2,2.3-0.2,2.6C271.1,68.5,271.1,70.6,271.3,70.8L271.3,70.8z"/>
	<rect x="122.3" y="76.4" class="st6" width="24.5" height="5.1"/>
	<path class="st6" d="M122.4,81.5c-0.2,0.1-1.6-0.9-1.8-1s-1.5-1.2-1.5-1.5s1.4-1.4,1.6-1.6c0.2-0.1,1.6-1.1,1.7-1
		c0.2,0.1,0.2,2.3,0.2,2.6C122.7,79.3,122.6,81.4,122.4,81.5L122.4,81.5z"/>
	<path class="st6" d="M146.8,81.5c0.2,0.1,1.6-0.9,1.8-1s1.5-1.2,1.5-1.5s-1.4-1.4-1.6-1.6c-0.2-0.1-1.6-1.1-1.7-1
		c-0.2,0.1-0.2,2.3-0.2,2.6C146.6,79.3,146.6,81.4,146.8,81.5L146.8,81.5z"/>
	<rect x="122.3" y="89" class="st6" width="24.5" height="5.1"/>
	<path class="st6" d="M122.4,94.1c-0.2,0.1-1.6-0.9-1.8-1s-1.5-1.2-1.5-1.5s1.4-1.4,1.6-1.6c0.2-0.1,1.6-1.1,1.7-1
		c0.2,0.1,0.2,2.3,0.2,2.6C122.7,91.9,122.6,94,122.4,94.1L122.4,94.1z"/>
	<path class="st6" d="M146.8,94.1c0.2,0.1,1.6-0.9,1.8-1s1.5-1.2,1.5-1.5s-1.4-1.4-1.6-1.6c-0.2-0.1-1.6-1.1-1.7-1
		c-0.2,0.1-0.2,2.3-0.2,2.6S146.6,94,146.8,94.1L146.8,94.1z"/>
	<rect x="156.8" y="76.4" class="st8" width="40.2" height="5.1"/>
	<path class="st8" d="M156.9,81.5c-0.2,0.1-1.6-0.9-1.8-1s-1.5-1.2-1.5-1.5s1.4-1.4,1.6-1.6c0.2-0.1,1.6-1.1,1.7-1
		c0.2,0.1,0.2,2.3,0.2,2.6C157.1,79.3,157.1,81.4,156.9,81.5L156.9,81.5z"/>
	<path class="st8" d="M196.9,81.5c0.2,0.1,1.6-0.9,1.8-1s1.5-1.2,1.5-1.5s-1.4-1.4-1.6-1.6c-0.2-0.1-1.6-1.1-1.7-1
		c-0.2,0.1-0.2,2.3-0.2,2.6C196.7,79.3,196.7,81.4,196.9,81.5L196.9,81.5z"/>
	<rect x="157.2" y="88.5" class="st8" width="40.2" height="5.1"/>
	<path class="st8" d="M157.3,93.6c-0.2,0.1-1.6-0.9-1.8-1s-1.5-1.2-1.5-1.5s1.4-1.4,1.6-1.6c0.2-0.1,1.6-1.1,1.7-1
		c0.2,0.1,0.2,2.3,0.2,2.6S157.5,93.5,157.3,93.6L157.3,93.6z"/>
	<path class="st8" d="M197.3,93.6c0.2,0.1,1.6-0.9,1.8-1s1.5-1.2,1.5-1.5s-1.4-1.4-1.6-1.6c-0.2-0.1-1.6-1.1-1.7-1
		c-0.2,0.1-0.2,2.3-0.2,2.6C197,91.4,197.1,93.5,197.3,93.6L197.3,93.6z"/>
	<rect x="206.5" y="76.2" class="st7" width="64.3" height="5.1"/>
	<path class="st7" d="M206.6,81.3c-0.2,0.1-1.6-0.9-1.8-1s-1.5-1.2-1.5-1.5s1.4-1.4,1.6-1.6c0.2-0.1,1.6-1.1,1.7-1
		c0.2,0.1,0.2,2.3,0.2,2.6C206.9,79,206.8,81.1,206.6,81.3L206.6,81.3z"/>
	<path class="st7" d="M270.3,81.3c0.2,0.1,1.6-0.9,1.8-1s1.5-1.2,1.5-1.5s-1.4-1.4-1.6-1.6c-0.2-0.1-1.6-1.1-1.7-1
		c-0.2,0.1-0.2,2.3-0.2,2.6C270,79,270.1,81.1,270.3,81.3L270.3,81.3z"/>
	<rect x="207.5" y="87.8" class="st7" width="64.3" height="5.1"/>
	<path class="st7" d="M207.6,92.8c-0.2,0.1-1.6-0.9-1.8-1s-1.5-1.2-1.5-1.5s1.4-1.4,1.6-1.6c0.2-0.1,1.6-1.1,1.7-1
		c0.2,0.1,0.2,2.3,0.2,2.6C207.9,90.6,207.8,92.7,207.6,92.8L207.6,92.8z"/>
	<path class="st7" d="M271.3,92.8c0.2,0.1,1.6-0.9,1.8-1s1.5-1.2,1.5-1.5s-1.4-1.4-1.6-1.6c-0.2-0.1-1.6-1.1-1.7-1
		c-0.2,0.1-0.2,2.3-0.2,2.6C271.1,90.6,271.1,92.7,271.3,92.8L271.3,92.8z"/>
	<rect x="109.2" y="103.1" class="st6" width="24.5" height="5.1"/>
	<path class="st6" d="M109.3,108.2c-0.2,0.1-1.6-0.9-1.8-1s-1.5-1.2-1.5-1.5s1.4-1.4,1.6-1.6c0.2-0.1,1.6-1.1,1.7-1
		c0.2,0.1,0.2,2.3,0.2,2.6S109.4,108.1,109.3,108.2L109.3,108.2z"/>
	<path class="st6" d="M133.6,108.2c0.2,0.1,1.6-0.9,1.8-1s1.5-1.2,1.5-1.5s-1.4-1.4-1.6-1.6c-0.2-0.1-1.6-1.1-1.7-1
		c-0.2,0.1-0.2,2.3-0.2,2.6S133.5,108.1,133.6,108.2L133.6,108.2z"/>
	<rect x="109.2" y="115.7" class="st6" width="24.5" height="5.1"/>
	<path class="st6" d="M109.3,120.8c-0.2,0.1-1.6-0.9-1.8-1s-1.5-1.2-1.5-1.5s1.4-1.4,1.6-1.6c0.2-0.1,1.6-1.1,1.7-1
		c0.2,0.1,0.2,2.3,0.2,2.6S109.4,120.7,109.3,120.8L109.3,120.8z"/>
	<path class="st6" d="M133.6,120.8c0.2,0.1,1.6-0.9,1.8-1s1.5-1.2,1.5-1.5s-1.4-1.4-1.6-1.6c-0.2-0.1-1.6-1.1-1.7-1
		c-0.2,0.1-0.2,2.3-0.2,2.6S133.5,120.7,133.6,120.8L133.6,120.8z"/>
	<rect x="143.7" y="103.1" class="st8" width="40.2" height="5.1"/>
	<path class="st8" d="M143.8,108.2c-0.2,0.1-1.6-0.9-1.8-1s-1.5-1.2-1.5-1.5s1.4-1.4,1.6-1.6c0.2-0.1,1.6-1.1,1.7-1
		c0.2,0.1,0.2,2.3,0.2,2.6S143.9,108.1,143.8,108.2L143.8,108.2z"/>
	<path class="st8" d="M183.7,108.2c0.2,0.1,1.6-0.9,1.8-1s1.5-1.2,1.5-1.5s-1.4-1.4-1.6-1.6c-0.2-0.1-1.6-1.1-1.7-1
		c-0.2,0.1-0.2,2.3-0.2,2.6S183.5,108.1,183.7,108.2L183.7,108.2z"/>
	<rect x="144" y="115.2" class="st8" width="40.2" height="5.1"/>
	<path class="st8" d="M144.1,120.3c-0.2,0.1-1.6-0.9-1.8-1s-1.5-1.2-1.5-1.5s1.4-1.4,1.6-1.6c0.2-0.1,1.6-1.1,1.7-1
		c0.2,0.1,0.2,2.3,0.2,2.6C144.3,118,144.3,120.2,144.1,120.3L144.1,120.3z"/>
	<path class="st8" d="M184.1,120.3c0.2,0.1,1.6-0.9,1.8-1s1.5-1.2,1.5-1.5s-1.4-1.4-1.6-1.6c-0.2-0.1-1.6-1.1-1.7-1
		c-0.2,0.1-0.2,2.3-0.2,2.6C183.9,118,183.9,120.2,184.1,120.3L184.1,120.3z"/>
	<rect x="193.4" y="102.9" class="st7" width="64.3" height="5.1"/>
	<path class="st7" d="M193.5,108c-0.2,0.1-1.6-0.9-1.8-1s-1.5-1.2-1.5-1.5s1.4-1.4,1.6-1.6c0.2-0.1,1.6-1.1,1.7-1
		c0.2,0.1,0.2,2.3,0.2,2.6C193.7,105.7,193.6,107.8,193.5,108L193.5,108z"/>
	<path class="st7" d="M257.1,108c0.2,0.1,1.6-0.9,1.8-1s1.5-1.2,1.5-1.5s-1.4-1.4-1.6-1.6c-0.2-0.1-1.6-1.1-1.7-1
		c-0.2,0.1-0.2,2.3-0.2,2.6C256.9,105.7,256.9,107.8,257.1,108L257.1,108z"/>
	<rect x="194.4" y="114.5" class="st7" width="64.3" height="5.1"/>
	<path class="st7" d="M194.5,119.5c-0.2,0.1-1.6-0.9-1.8-1s-1.5-1.2-1.5-1.5s1.4-1.4,1.6-1.6c0.2-0.1,1.6-1.1,1.7-1
		c0.2,0.1,0.2,2.3,0.2,2.6S194.6,119.4,194.5,119.5L194.5,119.5z"/>
	<path class="st7" d="M258.1,119.5c0.2,0.1,1.6-0.9,1.8-1s1.5-1.2,1.5-1.5s-1.4-1.4-1.6-1.6c-0.2-0.1-1.6-1.1-1.7-1
		c-0.2,0.1-0.2,2.3-0.2,2.6S257.9,119.4,258.1,119.5L258.1,119.5z"/>
	<rect x="121.3" y="127.1" class="st6" width="24.5" height="5.1"/>
	<path class="st6" d="M121.4,132.1c-0.2,0.1-1.6-0.9-1.8-1s-1.5-1.2-1.5-1.5s1.4-1.4,1.6-1.6c0.2-0.1,1.6-1.1,1.7-1
		c0.2,0.1,0.2,2.3,0.2,2.6S121.5,132,121.4,132.1L121.4,132.1z"/>
	<path class="st6" d="M145.7,132.1c0.2,0.1,1.6-0.9,1.8-1s1.5-1.2,1.5-1.5s-1.4-1.4-1.6-1.6c-0.2-0.1-1.6-1.1-1.7-1
		c-0.2,0.1-0.2,2.3-0.2,2.6S145.5,132,145.7,132.1L145.7,132.1z"/>
	<rect x="156.1" y="126.6" class="st8" width="64.3" height="5.1"/>
	<path class="st8" d="M156.2,131.6c-0.2,0.1-1.6-0.9-1.8-1s-1.5-1.2-1.5-1.5s1.4-1.4,1.6-1.6c0.2-0.1,1.6-1.1,1.7-1
		c0.2,0.1,0.2,2.3,0.2,2.6C156.4,129.4,156.4,131.5,156.2,131.6L156.2,131.6z"/>
	<path class="st8" d="M219.8,131.6c0.2,0.1,1.6-0.9,1.8-1s1.5-1.2,1.5-1.5s-1.4-1.4-1.6-1.6c-0.2-0.1-1.6-1.1-1.7-1
		c-0.2,0.1-0.2,2.3-0.2,2.6S219.7,131.5,219.8,131.6L219.8,131.6z"/>
	<rect x="121.3" y="136.6" class="st6" width="24.5" height="5.1"/>
	<path class="st6" d="M121.4,141.7c-0.2,0.1-1.6-0.9-1.8-1s-1.5-1.2-1.5-1.5s1.4-1.4,1.6-1.6c0.2-0.1,1.6-1.1,1.7-1
		c0.2,0.1,0.2,2.3,0.2,2.6C121.6,139.4,121.5,141.6,121.4,141.7L121.4,141.7z"/>
	<path class="st6" d="M145.7,141.7c0.2,0.1,1.6-0.9,1.8-1s1.5-1.2,1.5-1.5s-1.4-1.4-1.6-1.6c-0.2-0.1-1.6-1.1-1.7-1
		c-0.2,0.1-0.2,2.3-0.2,2.6C145.5,139.4,145.5,141.6,145.7,141.7L145.7,141.7z"/>
	<rect x="230" y="127.1" class="st7" width="24.5" height="5.1"/>
	<path class="st7" d="M230.1,132.1c-0.2,0.1-1.6-0.9-1.8-1s-1.5-1.2-1.5-1.5s1.4-1.4,1.6-1.6c0.2-0.1,1.6-1.1,1.7-1
		c0.2,0.1,0.2,2.3,0.2,2.6S230.2,132,230.1,132.1L230.1,132.1z"/>
	<path class="st7" d="M254.4,132.1c0.2,0.1,1.6-0.9,1.8-1s1.5-1.2,1.5-1.5s-1.4-1.4-1.6-1.6c-0.2-0.1-1.6-1.1-1.7-1
		c-0.2,0.1-0.2,2.3-0.2,2.6C254.2,129.9,254.3,132,254.4,132.1L254.4,132.1z"/>
	<rect x="156.8" y="136.9" class="st7" width="114" height="5.1"/>
	<path class="st7" d="M156.9,141.9c-0.2,0.1-1.6-0.9-1.8-1s-1.5-1.2-1.5-1.5s1.4-1.4,1.5-1.6c0.2-0.1,1.5-1.1,1.7-1s0.2,2.3,0.2,2.6
		C157.1,139.7,157.1,141.8,156.9,141.9L156.9,141.9z"/>
	<path class="st7" d="M270.6,141.9c0.2,0.1,1.6-0.9,1.8-1s1.5-1.2,1.5-1.5s-1.4-1.4-1.5-1.6c-0.2-0.1-1.5-1.1-1.7-1
		s-0.2,2.3-0.2,2.6C270.4,139.7,270.4,141.8,270.6,141.9L270.6,141.9z"/>
	<rect x="121.3" y="147.7" class="st6" width="24.5" height="5.1"/>
	<path class="st6" d="M121.4,152.8c-0.2,0.1-1.6-0.9-1.8-1s-1.5-1.2-1.5-1.5s1.4-1.4,1.6-1.6c0.2-0.1,1.6-1.1,1.7-1
		c0.2,0.1,0.2,2.3,0.2,2.6C121.6,150.5,121.5,152.6,121.4,152.8L121.4,152.8z"/>
	<path class="st6" d="M145.7,152.8c0.2,0.1,1.6-0.9,1.8-1s1.5-1.2,1.5-1.5s-1.4-1.4-1.6-1.6c-0.2-0.1-1.6-1.1-1.7-1
		c-0.2,0.1-0.2,2.3-0.2,2.6C145.5,150.5,145.5,152.6,145.7,152.8L145.7,152.8z"/>
	<rect x="156.1" y="147.2" class="st8" width="64.3" height="5.1"/>
	<path class="st8" d="M156.2,152.2c-0.2,0.1-1.6-0.9-1.8-1s-1.5-1.2-1.5-1.5s1.4-1.4,1.6-1.6c0.2-0.1,1.6-1.1,1.7-1
		c0.2,0.1,0.2,2.3,0.2,2.6C156.4,150,156.4,152.1,156.2,152.2L156.2,152.2z"/>
	<path class="st8" d="M219.8,152.2c0.2,0.1,1.6-0.9,1.8-1s1.5-1.2,1.5-1.5s-1.4-1.4-1.6-1.6c-0.2-0.1-1.6-1.1-1.7-1
		c-0.2,0.1-0.2,2.3-0.2,2.6S219.7,152.1,219.8,152.2L219.8,152.2z"/>
	<rect x="230" y="147.7" class="st7" width="24.5" height="5.1"/>
	<path class="st7" d="M230.1,152.8c-0.2,0.1-1.6-0.9-1.8-1s-1.5-1.2-1.5-1.5s1.4-1.4,1.6-1.6c0.2-0.1,1.6-1.1,1.7-1
		c0.2,0.1,0.2,2.3,0.2,2.6C230.3,150.5,230.2,152.6,230.1,152.8L230.1,152.8z"/>
	<path class="st7" d="M254.4,152.8c0.2,0.1,1.6-0.9,1.8-1s1.5-1.2,1.5-1.5s-1.4-1.4-1.6-1.6c-0.2-0.1-1.6-1.1-1.7-1
		c-0.2,0.1-0.2,2.3-0.2,2.6C254.2,150.5,254.3,152.6,254.4,152.8L254.4,152.8z"/>
	<rect x="120.2" y="158.2" class="st6" width="24.5" height="5.1"/>
	<path class="st6" d="M120.3,163.3c-0.2,0.1-1.6-0.9-1.8-1s-1.5-1.2-1.5-1.5s1.4-1.4,1.6-1.6c0.2-0.1,1.6-1.1,1.7-1
		c0.2,0.1,0.2,2.3,0.2,2.6C120.6,161,120.5,163.1,120.3,163.3L120.3,163.3z"/>
	<path class="st6" d="M144.7,163.3c0.2,0.1,1.6-0.9,1.8-1s1.5-1.2,1.5-1.5s-1.4-1.4-1.6-1.6c-0.2-0.1-1.6-1.1-1.7-1
		c-0.2,0.1-0.2,2.3-0.2,2.6C144.5,161,144.5,163.1,144.7,163.3L144.7,163.3z"/>
	<rect x="202.5" y="158.2" class="st7" width="69.3" height="5.1"/>
	<path class="st7" d="M202.6,163.3c-0.2,0.1-1.6-0.9-1.8-1s-1.5-1.2-1.5-1.5s1.4-1.4,1.6-1.6c0.2-0.1,1.6-1.1,1.7-1
		c0.2,0.1,0.2,2.3,0.2,2.6C202.8,161,202.7,163.1,202.6,163.3L202.6,163.3z"/>
	<path class="st7" d="M271.5,163.3c0.2,0.1,1.6-0.9,1.8-1s1.5-1.2,1.5-1.5s-1.4-1.4-1.6-1.6c-0.2-0.1-1.6-1.1-1.7-1
		c-0.2,0.1-0.2,2.3-0.2,2.6C271.3,161,271.3,163.1,271.5,163.3L271.5,163.3z"/>
	<rect x="120.8" y="167.3" class="st7" width="150.7" height="5.1"/>
	<path class="st7" d="M121,172.3c-0.2,0.1-2.1-0.9-2.3-1s-2-1.2-1.9-1.5c0-0.3,1.8-1.4,2-1.6c0.2-0.1,2-1.1,2.2-1s0.3,2.3,0.3,2.6
		C121.2,170.1,121.2,172.2,121,172.3L121,172.3z"/>
	<path class="st7" d="M271.1,172.3c0.2,0.1,2.1-0.9,2.3-1s2-1.2,1.9-1.5c0-0.3-1.8-1.4-2-1.6c-0.2-0.1-2-1.1-2.2-1s-0.3,2.3-0.3,2.6
		S270.8,172.2,271.1,172.3L271.1,172.3z"/>
	<rect x="120.8" y="175.8" class="st7" width="150.7" height="5.1"/>
	<path class="st7" d="M121,180.9c-0.2,0.1-2.1-0.9-2.3-1s-2-1.2-1.9-1.5c0-0.3,1.8-1.4,2-1.6c0.2-0.1,2-1.1,2.2-1s0.3,2.3,0.3,2.6
		C121.2,178.6,121.2,180.8,121,180.9L121,180.9z"/>
	<path class="st7" d="M271.1,180.9c0.2,0.1,2.1-0.9,2.3-1s2-1.2,1.9-1.5c0-0.3-1.8-1.4-2-1.6c-0.2-0.1-2-1.1-2.2-1s-0.3,2.3-0.3,2.6
		C270.8,178.6,270.8,180.8,271.1,180.9L271.1,180.9z"/>
	<rect x="156.3" y="158.2" class="st8" width="35.7" height="5.1"/>
	<path class="st8" d="M156.4,163.3c-0.3,0.1-2.4-0.9-2.6-1c-0.2-0.1-2.2-1.2-2.2-1.5s2.1-1.4,2.3-1.6c0.2-0.1,2.3-1.1,2.5-1
		s0.3,2.3,0.3,2.6C156.7,161,156.6,163.1,156.4,163.3L156.4,163.3z"/>
	<path class="st8" d="M191.9,163.3c0.3,0.1,2.4-0.9,2.6-1c0.2-0.1,2.2-1.2,2.2-1.5s-2.1-1.4-2.3-1.6c-0.2-0.1-2.3-1.1-2.5-1
		s-0.3,2.3-0.3,2.6C191.6,161,191.7,163.1,191.9,163.3L191.9,163.3z"/>
	<rect x="169.1" y="184.4" class="st6" width="24.5" height="5.1"/>
	<path class="st6" d="M193.5,189.4c0.2,0.1,1.6-0.9,1.8-1s1.5-1.2,1.5-1.5s-1.4-1.4-1.6-1.6c-0.2-0.1-1.6-1.1-1.7-1
		c-0.2,0.1-0.2,2.3-0.2,2.6C193.2,187.2,193.3,189.3,193.5,189.4L193.5,189.4z"/>
	<path class="st6" d="M169.1,189.4c-0.2,0.1-1.6-0.9-1.8-1s-1.5-1.2-1.5-1.5s1.4-1.4,1.6-1.6c0.2-0.1,1.6-1.1,1.7-1
		c0.2,0.1,0.2,2.3,0.2,2.6C169.3,187.2,169.3,189.3,169.1,189.4L169.1,189.4z"/>
	<rect x="121.8" y="184.4" class="st8" width="35.7" height="5.1"/>
	<path class="st8" d="M157.4,189.4c0.3,0.1,2.4-0.9,2.6-1c0.2-0.1,2.2-1.2,2.2-1.5s-2.1-1.4-2.3-1.6c-0.2-0.1-2.3-1.1-2.5-1
		s-0.3,2.3-0.3,2.6C157.1,187.2,157.2,189.3,157.4,189.4L157.4,189.4z"/>
	<path class="st8" d="M121.9,189.4c-0.3,0.1-2.4-0.9-2.6-1c-0.2-0.1-2.2-1.2-2.2-1.5s2.1-1.4,2.3-1.6c0.2-0.1,2.3-1.1,2.5-1
		s0.3,2.3,0.3,2.6C122.2,187.2,122.1,189.3,121.9,189.4L121.9,189.4z"/>
	<g transform="translate(-707.27)">
		<path class="st10" d="M1215.1,209.8l89.9,2l7.4,70.4h-105.1L1215.1,209.8z"/>
		<path class="st7" d="M1215.1,209.8l-2.3,21.9h94.4l-2.1-19.9L1215.1,209.8L1215.1,209.8z"/>
		<path class="st3" d="M1075,226.7h369.7c10.2,0,18.5-8.3,18.5-18.5v-230c0-10.2-8.3-18.5-18.5-18.5H1075
			c-10.2,0-18.5,8.3-18.5,18.5v230C1056.5,218.4,1064.8,226.7,1075,226.7z"/>
		<path class="st1" d="M1056.4-46v235.5h406.9V-46H1056.4z M1066-33.9h386l-51.8,194L1111,140.8L1066-33.9z"/>
		<path class="st1" d="M1077.5-63.3h364.8c11.6,0,21.1,9.4,21.1,21.1v70c0,11.6-9.4,21.1-21.1,21.1h-364.8
			c-11.6,0-21.1-9.4-21.1-21.1v-70C1056.4-53.8,1065.9-63.3,1077.5-63.3z"/>
		<rect x="1072.9" y="-45.4" class="st11" width="374" height="215.5"/>
		<path class="st3" d="M1180.1,271.6h159.6c1.7,0,3.1,1.4,3.1,3.1v4.5c0,1.7-1.4,3.1-3.1,3.1h-159.6c-1.7,0-3.1-1.4-3.1-3.1v-4.5
			C1177,273,1178.4,271.6,1180.1,271.6z"/>
		<circle class="st1" cx="1259.9" cy="208.6" r="10.5"/>
		<rect x="1099.9" y="-45.4" class="st3" width="319.9" height="215.5"/>
		<rect x="1105.1" y="-39.1" class="st12" width="309.7" height="52"/>
		<rect x="1107.8" y="19.4" class="st13" width="32" height="9.8"/>
		<rect x="1142.3" y="19.4" class="st13" width="32" height="9.8"/>
		<rect x="1177.2" y="19.4" class="st13" width="41" height="9.8"/>
		<rect x="1221.4" y="19.4" class="st13" width="30.2" height="9.8"/>
		<rect x="1253.8" y="19.4" class="st13" width="41" height="9.8"/>
		<rect x="1339.7" y="35.4" class="st14" width="75.1" height="130"/>
		<path class="st15" d="M1370.2,39.7l-8.6,8.6l-10.6,53.9l-11.3,18.6v44.6h11l51.7-25.5c0,0,10.1-38.8,10.1-40.8
			S1370.2,39.7,1370.2,39.7L1370.2,39.7z"/>
		<rect x="1226.7" y="35.7" class="st16" width="68" height="6.5"/>
		<rect x="1227.2" y="45.2" class="st16" width="57.9" height="2"/>
		<rect x="1227.9" y="61.1" class="st17" width="35.7" height="5"/>
		<rect x="1227.9" y="69.7" class="st17" width="29.7" height="5"/>
		<rect x="1227.9" y="77.7" class="st17" width="29.7" height="5"/>
		<rect x="1227.9" y="85.8" class="st17" width="25.7" height="5"/>
		<rect x="1227.9" y="93.8" class="st17" width="25.7" height="5"/>
		<rect x="1227.9" y="102.4" class="st17" width="29.7" height="5"/>
		<rect x="1227.9" y="111.2" class="st17" width="35" height="5"/>
		<rect x="1227.9" y="118.7" class="st17" width="35" height="5"/>
		<rect x="1268" y="61.1" class="st17" width="1.7" height="5"/>
		<rect x="1268" y="69.1" class="st17" width="1.7" height="5"/>
		<rect x="1268" y="77.3" class="st17" width="1.7" height="5"/>
		<rect x="1268" y="85" class="st17" width="1.7" height="5"/>
		<rect x="1268" y="93.3" class="st17" width="1.7" height="5"/>
		<rect x="1268" y="102" class="st17" width="1.7" height="5"/>
		<rect x="1268" y="111.1" class="st17" width="1.7" height="5"/>
		<rect x="1268" y="118.6" class="st17" width="1.7" height="5"/>
		<rect x="1277.6" y="61.1" class="st17" width="47.5" height="5"/>
		<rect x="1277.5" y="69.7" class="st17" width="29.7" height="5"/>
		<rect x="1277.6" y="77.7" class="st17" width="53.2" height="5"/>
		<rect x="1277.5" y="85.8" class="st17" width="10.2" height="5"/>
		<rect x="1277.8" y="93.8" class="st17" width="10" height="5"/>
		<rect x="1277.2" y="102.4" class="st17" width="16.4" height="5"/>
		<rect x="1277.5" y="111.2" class="st17" width="35" height="5"/>
		<rect x="1277.6" y="118.7" class="st17" width="12.9" height="5"/>
		<rect x="1242" y="141.4" class="st17" width="89.4" height="5"/>
		<rect x="1227.9" y="150.5" class="st17" width="103.4" height="5"/>
		<rect x="1227.9" y="158.5" class="st17" width="85.1" height="5"/>
		<path class="st18" d="M1396.8,53.3l-30.7,77.5l29.5,34.6h19.2V66L1396.8,53.3L1396.8,53.3z"/>
		<path class="st19" d="M1347,71.9l-7.3,8.3v85.1h68L1347,71.9L1347,71.9z"/>
		<path class="st20" d="M1414.7-28.2l-24,8l-68.5,6l-58.9-7.6l-53.4,11.1l-37.1-12L1105.1-8v20.8h309.7L1414.7-28.2L1414.7-28.2z"/>
	</g>
</g>
</svg>
