<?xml version="1.0" encoding="utf-8"?>
<!-- Generator: Adobe Illustrator 19.0.0, SVG Export Plug-In . SVG Version: 6.00 Build 0)  -->
<svg version="1.1" id="Layer_1" xmlns="http://www.w3.org/2000/svg" xmlns:xlink="http://www.w3.org/1999/xlink" x="0px" y="0px"
	 viewBox="-262.6 109.9 406.9 345.6" style="enable-background:new -262.6 109.9 406.9 345.6;" xml:space="preserve">
<style type="text/css">
	.st0{fill:#F2F2F2;stroke:#333333;stroke-miterlimit:10;}
	.st1{fill:#CCCCCC;stroke:#333333;stroke-miterlimit:10;}
	.st2{fill:#FFFFFF;stroke:#333333;stroke-miterlimit:10;}
	.st3{fill:#333333;}
	.st4{fill:#ECECEC;stroke:#333333;stroke-miterlimit:10;}
	.st5{fill:#66BB6A;}
	.st6{fill:#1E88E5;}
	.st7{fill:#F06292;}
	.st8{fill:#D81B60;}
	.st9{fill:#999999;}
	.st10{fill:#AED581;}
	.st11{fill:#E91E63;}
	.st12{fill:#EC407A;}
	.st13{fill:#4CAF50;}
</style>
<g transform="translate(-707.27)">
	<path class="st0" d="M603.3,383l89.9,2l7.4,70.4H595.5L603.3,383z"/>
	<path class="st1" d="M603.3,383l-2.3,21.9h94.4l-2.1-19.9L603.3,383L603.3,383z"/>
	<path class="st2" d="M463.2,399.9h369.7c10.2,0,18.5-8.3,18.5-18.5v-230c0-10.2-8.3-18.5-18.5-18.5H463.2
		c-10.2,0-18.5,8.3-18.5,18.5v230C444.7,391.6,453,399.9,463.2,399.9z"/>
	<path class="st3" d="M444.6,127.2v235.5h406.9V127.2H444.6z M454.2,139.3h386l-51.8,194L499.2,314L454.2,139.3z"/>
	<path class="st3" d="M465.7,109.9h364.8c11.6,0,21.1,9.4,21.1,21.1v70c0,11.6-9.4,21.1-21.1,21.1H465.7c-11.6,0-21.1-9.4-21.1-21.1
		v-70C444.6,119.4,454.1,109.9,465.7,109.9z"/>
	<rect x="461.1" y="127.8" class="st4" width="374" height="215.5"/>
	<path class="st2" d="M568.3,444.8h159.6c1.7,0,3.1,1.4,3.1,3.1v4.5c0,1.7-1.4,3.1-3.1,3.1H568.3c-1.7,0-3.1-1.4-3.1-3.1v-4.5
		C565.2,446.2,566.6,444.8,568.3,444.8z"/>
	<circle class="st3" cx="648.1" cy="381.8" r="10.5"/>
	<rect x="488.1" y="127.8" class="st2" width="319.9" height="215.5"/>
	<rect x="493.3" y="134.1" class="st5" width="309.7" height="52"/>
	<rect x="496" y="192.6" class="st6" width="32" height="9.8"/>
	<rect x="530.5" y="192.6" class="st6" width="32" height="9.8"/>
	<rect x="565.4" y="192.6" class="st6" width="41" height="9.8"/>
	<rect x="609.6" y="192.6" class="st6" width="30.2" height="9.8"/>
	<rect x="642" y="192.6" class="st6" width="41" height="9.8"/>
	<rect x="727.9" y="208.6" class="st7" width="75.1" height="130"/>
	<path class="st8" d="M758.4,212.9l-8.6,8.6l-10.6,53.9L727.9,294v44.6h11l51.7-25.5c0,0,10.1-38.8,10.1-40.8
		S758.4,212.9,758.4,212.9L758.4,212.9z"/>
	<rect x="614.9" y="208.9" class="st9" width="68" height="6.5"/>
	<rect x="615.4" y="218.4" class="st9" width="57.9" height="2"/>
	<rect x="616.1" y="234.3" class="st10" width="35.7" height="5"/>
	<rect x="616.1" y="242.9" class="st10" width="29.7" height="5"/>
	<rect x="616.1" y="250.9" class="st10" width="29.7" height="5"/>
	<rect x="616.1" y="259" class="st10" width="25.7" height="5"/>
	<rect x="616.1" y="267" class="st10" width="25.7" height="5"/>
	<rect x="616.1" y="275.6" class="st10" width="29.7" height="5"/>
	<rect x="616.1" y="284.4" class="st10" width="35" height="5"/>
	<rect x="616.1" y="291.9" class="st10" width="35" height="5"/>
	<rect x="656.2" y="234.3" class="st10" width="1.7" height="5"/>
	<rect x="656.2" y="242.3" class="st10" width="1.7" height="5"/>
	<rect x="656.2" y="250.5" class="st10" width="1.7" height="5"/>
	<rect x="656.2" y="258.2" class="st10" width="1.7" height="5"/>
	<rect x="656.2" y="266.5" class="st10" width="1.7" height="5"/>
	<rect x="656.2" y="275.2" class="st10" width="1.7" height="5"/>
	<rect x="656.2" y="284.3" class="st10" width="1.7" height="5"/>
	<rect x="656.2" y="291.8" class="st10" width="1.7" height="5"/>
	<rect x="665.8" y="234.3" class="st10" width="47.5" height="5"/>
	<rect x="665.7" y="242.9" class="st10" width="29.7" height="5"/>
	<rect x="665.8" y="250.9" class="st10" width="53.2" height="5"/>
	<rect x="665.7" y="259" class="st10" width="10.2" height="5"/>
	<rect x="666" y="267" class="st10" width="10" height="5"/>
	<rect x="665.4" y="275.6" class="st10" width="16.4" height="5"/>
	<rect x="665.7" y="284.4" class="st10" width="35" height="5"/>
	<rect x="665.8" y="291.9" class="st10" width="12.9" height="5"/>
	<rect x="630.2" y="314.6" class="st10" width="89.4" height="5"/>
	<rect x="616.1" y="323.7" class="st10" width="103.4" height="5"/>
	<rect x="616.1" y="331.7" class="st10" width="85.1" height="5"/>
	<path class="st11" d="M785,226.5L754.3,304l29.5,34.6H803v-99.4L785,226.5L785,226.5z"/>
	<path class="st12" d="M735.2,245.1l-7.3,8.3v85.1h68L735.2,245.1L735.2,245.1z"/>
	<path class="st13" d="M802.9,145l-24,8l-68.5,6l-58.9-7.6l-53.4,11.1l-37.1-12l-67.7,14.7V186H803L802.9,145L802.9,145z"/>
</g>
</svg>
