<?xml version="1.0" encoding="utf-8"?>
<!-- Generator: Adobe Illustrator 19.0.0, SVG Export Plug-In . SVG Version: 6.00 Build 0)  -->
<svg version="1.1" id="Layer_1" xmlns="http://www.w3.org/2000/svg" xmlns:xlink="http://www.w3.org/1999/xlink" x="0px" y="0px"
	 viewBox="-317.6 62.7 298.1 437.8" style="enable-background:new -317.6 62.7 298.1 437.8;" xml:space="preserve">
<style type="text/css">
	.st0{fill:#4D4D4D;}
	.st1{fill:#333333;}
	.st2{fill:#C5E1A5;}
	.st3{fill:#FFFFFF;stroke:#333333;stroke-miterlimit:10;}
	.st4{fill:#424242;}
	.st5{fill:#FF8F00;}
	.st6{fill:#26C6DA;}
	.st7{fill:#CCCCCC;stroke:#333333;stroke-miterlimit:10;}
	.st8{fill:#FF7043;}
	.st9{fill:#2196F3;}
</style>
<path class="st0" d="M-195.9,409.3h54.7v85.8c-17.1-1-35,1.7-54.7,0V409.3z"/>
<path class="st1" d="M-195.9,409.3h54.7v45.2c-17.1-0.5-35,0.9-54.7,0V409.3z"/>
<rect x="-307.3" y="68" class="st2" width="277.1" height="362.5"/>
<rect x="-278.2" y="68" class="st3" width="218.9" height="362.5"/>
<path class="st0" d="M-317.6,443.9h298.1V62.7h-298.1V443.9z M-302.2,425.2V78.6h266v347.2L-302.2,425.2z"/>
<path class="st4" d="M-252.4,500.5h167.6c0.9,0,2-0.3,1.6-0.6l-8.2-7.5c-0.3-0.3-3.8-0.6-4.7-0.6h-145c-0.9,0-4.4,0.3-4.7,0.6
	l-8.2,7.5C-254.3,500.2-253.3,500.5-252.4,500.5z"/>
<rect x="-265.1" y="91.1" class="st5" width="112.3" height="8.9"/>
<rect x="-259" y="125.8" class="st6" width="24.5" height="5.1"/>
<path class="st6" d="M-258.9,130.9c-0.2,0.1-1.6-0.9-1.8-1c-0.2-0.1-1.5-1.2-1.5-1.5s1.4-1.4,1.6-1.6c0.2-0.1,1.6-1.1,1.7-1
	c0.2,0.1,0.2,2.3,0.2,2.6C-258.7,128.7-258.8,130.8-258.9,130.9L-258.9,130.9z"/>
<path class="st6" d="M-234.6,130.9c0.2,0.1,1.6-0.9,1.8-1c0.2-0.1,1.5-1.2,1.5-1.5s-1.4-1.4-1.6-1.6c-0.2-0.1-1.6-1.1-1.7-1
	c-0.2,0.1-0.2,2.3-0.2,2.6C-234.8,128.7-234.7,130.8-234.6,130.9L-234.6,130.9z"/>
<rect x="-245.4" y="135.7" class="st6" width="24.5" height="5.1"/>
<path class="st6" d="M-245.3,140.7c-0.2,0.1-1.6-0.9-1.8-1c-0.2-0.1-1.5-1.2-1.5-1.5s1.4-1.4,1.6-1.6c0.2-0.1,1.6-1.1,1.7-1
	c0.2,0.1,0.2,2.3,0.2,2.6C-245.1,138.5-245.2,140.6-245.3,140.7L-245.3,140.7z"/>
<path class="st6" d="M-221,140.7c0.2,0.1,1.6-0.9,1.8-1c0.2-0.1,1.5-1.2,1.5-1.5s-1.4-1.4-1.6-1.6c-0.2-0.1-1.6-1.1-1.7-1
	c-0.2,0.1-0.2,2.3-0.2,2.6C-221.2,138.5-221.1,140.6-221,140.7L-221,140.7z"/>
<rect x="-234.9" y="145" class="st6" width="24.5" height="5.1"/>
<path class="st6" d="M-234.8,150c-0.2,0.1-1.6-0.9-1.8-1c-0.2-0.1-1.5-1.2-1.5-1.5s1.4-1.4,1.6-1.6c0.2-0.1,1.6-1.1,1.7-1
	c0.2,0.1,0.2,2.3,0.2,2.6C-234.5,147.8-234.6,149.9-234.8,150L-234.8,150z"/>
<path class="st6" d="M-210.4,150c0.2,0.1,1.6-0.9,1.8-1c0.2-0.1,1.5-1.2,1.5-1.5s-1.4-1.4-1.6-1.6c-0.2-0.1-1.6-1.1-1.7-1
	c-0.2,0.1-0.2,2.3-0.2,2.6C-210.6,147.8-210.6,149.9-210.4,150L-210.4,150z"/>
<rect x="-234.6" y="154.5" class="st6" width="24.5" height="5.1"/>
<path class="st6" d="M-234.5,159.6c-0.2,0.1-1.6-0.9-1.8-1c-0.2-0.1-1.5-1.2-1.5-1.5s1.4-1.4,1.6-1.6c0.2-0.1,1.6-1.1,1.7-1
	c0.2,0.1,0.2,2.3,0.2,2.6C-234.3,157.4-234.3,159.5-234.5,159.6L-234.5,159.6z"/>
<path class="st6" d="M-210.2,159.6c0.2,0.1,1.6-0.9,1.8-1c0.2-0.1,1.5-1.2,1.5-1.5s-1.4-1.4-1.6-1.6c-0.2-0.1-1.6-1.1-1.7-1
	c-0.2,0.1-0.2,2.3-0.2,2.6C-210.4,157.4-210.3,159.5-210.2,159.6L-210.2,159.6z"/>
<rect x="-234.4" y="163.9" class="st6" width="24.5" height="5.1"/>
<path class="st6" d="M-234.3,168.9c-0.2,0.1-1.6-0.9-1.8-1c-0.2-0.1-1.5-1.2-1.5-1.5s1.4-1.4,1.6-1.6c0.2-0.1,1.6-1.1,1.7-1
	c0.2,0.1,0.2,2.3,0.2,2.6C-234,166.7-234.1,168.8-234.3,168.9L-234.3,168.9z"/>
<path class="st6" d="M-209.9,168.9c0.2,0.1,1.6-0.9,1.8-1c0.2-0.1,1.5-1.2,1.5-1.5s-1.4-1.4-1.6-1.6c-0.2-0.1-1.6-1.1-1.7-1
	c-0.2,0.1-0.2,2.3-0.2,2.6C-210.1,166.7-210.1,168.8-209.9,168.9L-209.9,168.9z"/>
<rect x="-234.4" y="173.4" class="st6" width="24.5" height="5.1"/>
<path class="st6" d="M-234.3,178.5c-0.2,0.1-1.6-0.9-1.8-1c-0.2-0.1-1.5-1.2-1.5-1.5s1.4-1.4,1.6-1.6c0.2-0.1,1.6-1.1,1.7-1
	c0.2,0.1,0.2,2.3,0.2,2.6C-234,176.2-234.1,178.4-234.3,178.5L-234.3,178.5z"/>
<path class="st6" d="M-209.9,178.5c0.2,0.1,1.6-0.9,1.8-1c0.2-0.1,1.5-1.2,1.5-1.5s-1.4-1.4-1.6-1.6c-0.2-0.1-1.6-1.1-1.7-1
	c-0.2,0.1-0.2,2.3-0.2,2.6C-210.1,176.2-210.1,178.4-209.9,178.5L-209.9,178.5z"/>
<rect x="-234.4" y="207.1" class="st6" width="24.5" height="5.1"/>
<path class="st6" d="M-234.3,212.2c-0.2,0.1-1.6-0.9-1.8-1c-0.2-0.1-1.5-1.2-1.5-1.5s1.4-1.4,1.6-1.6c0.2-0.1,1.6-1.1,1.7-1
	c0.2,0.1,0.2,2.3,0.2,2.6C-234,210-234.1,212.1-234.3,212.2L-234.3,212.2z"/>
<path class="st6" d="M-209.9,212.2c0.2,0.1,1.6-0.9,1.8-1c0.2-0.1,1.5-1.2,1.5-1.5s-1.4-1.4-1.6-1.6c-0.2-0.1-1.6-1.1-1.7-1
	c-0.2,0.1-0.2,2.3-0.2,2.6C-210.1,210-210.1,212.1-209.9,212.2L-209.9,212.2z"/>
<rect x="-233.3" y="216.7" class="st6" width="24.5" height="5.1"/>
<path class="st6" d="M-233.2,221.8c-0.2,0.1-1.6-0.9-1.8-1c-0.2-0.1-1.5-1.2-1.5-1.5s1.4-1.4,1.6-1.6c0.2-0.1,1.6-1.1,1.7-1
	c0.2,0.1,0.2,2.3,0.2,2.6C-233,219.5-233.1,221.6-233.2,221.8L-233.2,221.8z"/>
<path class="st6" d="M-208.9,221.8c0.2,0.1,1.6-0.9,1.8-1c0.2-0.1,1.5-1.2,1.5-1.5s-1.4-1.4-1.6-1.6c-0.2-0.1-1.6-1.1-1.7-1
	c-0.2,0.1-0.2,2.3-0.2,2.6C-209.1,219.5-209.1,221.6-208.9,221.8L-208.9,221.8z"/>
<rect x="-245.4" y="227.3" class="st6" width="24.5" height="5.1"/>
<path class="st6" d="M-245.3,232.3c-0.2,0.1-1.6-0.9-1.8-1c-0.2-0.1-1.5-1.2-1.5-1.5s1.4-1.4,1.6-1.6c0.2-0.1,1.6-1.1,1.7-1
	c0.2,0.1,0.2,2.3,0.2,2.6C-245.1,230.1-245.2,232.2-245.3,232.3L-245.3,232.3z"/>
<path class="st6" d="M-221,232.3c0.2,0.1,1.6-0.9,1.8-1c0.2-0.1,1.5-1.2,1.5-1.5s-1.4-1.4-1.6-1.6c-0.2-0.1-1.6-1.1-1.7-1
	c-0.2,0.1-0.2,2.3-0.2,2.6S-221.1,232.2-221,232.3L-221,232.3z"/>
<rect x="-245.4" y="239.9" class="st6" width="24.5" height="5.1"/>
<path class="st6" d="M-245.3,244.9c-0.2,0.1-1.6-0.9-1.8-1c-0.2-0.1-1.5-1.2-1.5-1.5s1.4-1.4,1.6-1.6c0.2-0.1,1.6-1.1,1.7-1
	c0.2,0.1,0.2,2.3,0.2,2.6C-245.1,242.7-245.2,244.8-245.3,244.9L-245.3,244.9z"/>
<path class="st6" d="M-221,244.9c0.2,0.1,1.6-0.9,1.8-1c0.2-0.1,1.5-1.2,1.5-1.5s-1.4-1.4-1.6-1.6c-0.2-0.1-1.6-1.1-1.7-1
	c-0.2,0.1-0.2,2.3-0.2,2.6S-221.1,244.8-221,244.9L-221,244.9z"/>
<rect x="-200.2" y="173.4" class="st7" width="117.3" height="5.1"/>
<path class="st7" d="M-200.1,178.5c-0.2,0.1-1.6-0.9-1.8-1c-0.2-0.1-1.5-1.2-1.5-1.5s1.4-1.4,1.6-1.6c0.2-0.1,1.6-1.1,1.7-1
	c0.2,0.1,0.2,2.3,0.2,2.6C-199.9,176.2-199.9,178.4-200.1,178.5L-200.1,178.5z"/>
<path class="st7" d="M-83.1,178.5c0.2,0.1,1.6-0.9,1.8-1c0.2-0.1,1.5-1.2,1.5-1.5s-1.4-1.4-1.6-1.6c-0.2-0.1-1.6-1.1-1.7-1
	c-0.2,0.1-0.2,2.3-0.2,2.6C-83.3,176.2-83.3,178.4-83.1,178.5L-83.1,178.5z"/>
<rect x="-233.8" y="182.5" class="st7" width="150.7" height="5.1"/>
<path class="st7" d="M-233.6,187.5c-0.2,0.1-2.1-0.9-2.3-1c-0.2-0.1-2-1.2-1.9-1.5c0-0.3,1.8-1.4,2-1.6c0.2-0.1,2-1.1,2.2-1
	s0.3,2.3,0.3,2.6C-233.4,185.3-233.4,187.4-233.6,187.5L-233.6,187.5z"/>
<path class="st7" d="M-83.5,187.5c0.2,0.1,2.1-0.9,2.3-1s2-1.2,1.9-1.5c0-0.3-1.8-1.4-2-1.6c-0.2-0.1-2-1.1-2.2-1s-0.3,2.3-0.3,2.6
	S-83.8,187.4-83.5,187.5L-83.5,187.5z"/>
<rect x="-233.8" y="191" class="st7" width="150.7" height="5.1"/>
<path class="st7" d="M-233.6,196.1c-0.2,0.1-2.1-0.9-2.3-1c-0.2-0.1-2-1.2-1.9-1.5c0-0.3,1.8-1.4,2-1.6c0.2-0.1,2-1.1,2.2-1
	s0.3,2.3,0.3,2.6C-233.4,193.9-233.4,196-233.6,196.1L-233.6,196.1z"/>
<path class="st7" d="M-83.5,196.1c0.2,0.1,2.1-0.9,2.3-1s2-1.2,1.9-1.5c0-0.3-1.8-1.4-2-1.6c-0.2-0.1-2-1.1-2.2-1s-0.3,2.3-0.3,2.6
	S-83.8,196-83.5,196.1L-83.5,196.1z"/>
<rect x="-234.2" y="198.8" class="st7" width="133.5" height="5.1"/>
<path class="st7" d="M-234.1,203.9c-0.2,0.1-1.9-0.9-2.1-1s-1.7-1.2-1.7-1.5s1.6-1.4,1.8-1.6c0.2-0.1,1.8-1.1,2-1s0.3,2.3,0.3,2.6
	C-233.9,201.7-233.9,203.8-234.1,203.9L-234.1,203.9z"/>
<path class="st7" d="M-101.2,203.9c0.2,0.1,1.9-0.9,2.1-1c0.2-0.1,1.7-1.2,1.7-1.5s-1.6-1.4-1.8-1.6c-0.2-0.1-1.8-1.1-2-1
	s-0.3,2.3-0.3,2.6C-101.4,201.7-101.4,203.8-101.2,203.9L-101.2,203.9z"/>
<rect x="-199.6" y="154.3" class="st8" width="24.5" height="5.1"/>
<path class="st8" d="M-199.5,159.3c-0.2,0.1-1.6-0.9-1.8-1c-0.2-0.1-1.5-1.2-1.5-1.5s1.4-1.4,1.6-1.6c0.2-0.1,1.6-1.1,1.7-1
	c0.2,0.1,0.2,2.3,0.2,2.6C-199.3,157.1-199.4,159.2-199.5,159.3L-199.5,159.3z"/>
<path class="st8" d="M-175.2,159.3c0.2,0.1,1.6-0.9,1.8-1c0.2-0.1,1.5-1.2,1.5-1.5s-1.4-1.4-1.6-1.6c-0.2-0.1-1.6-1.1-1.7-1
	c-0.2,0.1-0.2,2.3-0.2,2.6C-175.4,157.1-175.3,159.2-175.2,159.3L-175.2,159.3z"/>
<rect x="-138.5" y="154.3" class="st8" width="24.5" height="5.1"/>
<path class="st8" d="M-138.4,159.3c-0.2,0.1-1.6-0.9-1.8-1c-0.2-0.1-1.5-1.2-1.5-1.5s1.4-1.4,1.6-1.6c0.2-0.1,1.6-1.1,1.7-1
	c0.2,0.1,0.2,2.3,0.2,2.6C-138.1,157.1-138.2,159.2-138.4,159.3L-138.4,159.3z"/>
<path class="st8" d="M-114,159.3c0.2,0.1,1.6-0.9,1.8-1c0.2-0.1,1.5-1.2,1.5-1.5s-1.4-1.4-1.6-1.6c-0.2-0.1-1.6-1.1-1.7-1
	c-0.2,0.1-0.2,2.3-0.2,2.6C-114.2,157.1-114.2,159.2-114,159.3L-114,159.3z"/>
<rect x="-105.7" y="154.3" class="st6" width="24.5" height="5.1"/>
<path class="st6" d="M-105.6,159.3c-0.2,0.1-1.6-0.9-1.8-1c-0.2-0.1-1.5-1.2-1.5-1.5s1.4-1.4,1.6-1.6c0.2-0.1,1.6-1.1,1.7-1
	c0.2,0.1,0.2,2.3,0.2,2.6C-105.4,157.1-105.5,159.2-105.6,159.3L-105.6,159.3z"/>
<path class="st6" d="M-81.3,159.3c0.2,0.1,1.6-0.9,1.8-1c0.2-0.1,1.5-1.2,1.5-1.5s-1.4-1.4-1.6-1.6c-0.2-0.1-1.6-1.1-1.7-1
	c-0.2,0.1-0.2,2.3-0.2,2.6C-81.5,157.1-81.5,159.2-81.3,159.3L-81.3,159.3z"/>
<rect x="-166.7" y="154.3" class="st7" width="20.5" height="5.1"/>
<path class="st7" d="M-166.6,159.3c-0.1,0.1-1.4-0.9-1.5-1c-0.1-0.1-1.3-1.2-1.3-1.5s1.2-1.4,1.3-1.6c0.1-0.1,1.3-1.1,1.4-1
	c0.1,0.1,0.2,2.3,0.2,2.6C-166.4,157.1-166.4,159.2-166.6,159.3L-166.6,159.3z"/>
<path class="st7" d="M-146.2,159.3c0.1,0.1,1.4-0.9,1.5-1c0.1-0.1,1.3-1.2,1.3-1.5s-1.2-1.4-1.3-1.6c-0.1-0.1-1.3-1.1-1.4-1
	c-0.1,0.1-0.2,2.3-0.2,2.6C-146.4,157.1-146.3,159.2-146.2,159.3L-146.2,159.3z"/>
<rect x="-210.9" y="227.3" class="st8" width="40.2" height="5.1"/>
<path class="st8" d="M-210.8,232.3c-0.2,0.1-1.6-0.9-1.8-1c-0.2-0.1-1.5-1.2-1.5-1.5s1.4-1.4,1.6-1.6c0.2-0.1,1.6-1.1,1.7-1
	c0.2,0.1,0.2,2.3,0.2,2.6C-210.6,230.1-210.7,232.2-210.8,232.3L-210.8,232.3z"/>
<path class="st8" d="M-170.9,232.3c0.2,0.1,1.6-0.9,1.8-1s1.5-1.2,1.5-1.5s-1.4-1.4-1.6-1.6c-0.2-0.1-1.6-1.1-1.7-1
	c-0.2,0.1-0.2,2.3-0.2,2.6C-171.1,230.1-171.1,232.2-170.9,232.3L-170.9,232.3z"/>
<rect x="-210.6" y="239.4" class="st8" width="40.2" height="5.1"/>
<path class="st8" d="M-210.5,244.4c-0.2,0.1-1.6-0.9-1.8-1c-0.2-0.1-1.5-1.2-1.5-1.5s1.4-1.4,1.6-1.6c0.2-0.1,1.6-1.1,1.7-1
	c0.2,0.1,0.2,2.3,0.2,2.6C-210.3,242.2-210.3,244.3-210.5,244.4L-210.5,244.4z"/>
<path class="st8" d="M-170.5,244.4c0.2,0.1,1.6-0.9,1.8-1s1.5-1.2,1.5-1.5s-1.4-1.4-1.6-1.6c-0.2-0.1-1.6-1.1-1.7-1
	c-0.2,0.1-0.2,2.3-0.2,2.6S-170.7,244.3-170.5,244.4L-170.5,244.4z"/>
<rect x="-233.3" y="251.2" class="st6" width="24.5" height="5.1"/>
<path class="st6" d="M-233.2,256.3c-0.2,0.1-1.6-0.9-1.8-1c-0.2-0.1-1.5-1.2-1.5-1.5s1.4-1.4,1.6-1.6c0.2-0.1,1.6-1.1,1.7-1
	c0.2,0.1,0.2,2.3,0.2,2.6C-233,254-233.1,256.1-233.2,256.3L-233.2,256.3z"/>
<path class="st6" d="M-208.9,256.3c0.2,0.1,1.6-0.9,1.8-1c0.2-0.1,1.5-1.2,1.5-1.5s-1.4-1.4-1.6-1.6c-0.2-0.1-1.6-1.1-1.7-1
	c-0.2,0.1-0.2,2.3-0.2,2.6C-209.1,254-209.1,256.1-208.9,256.3L-208.9,256.3z"/>
<rect x="-198.5" y="250.7" class="st8" width="64.3" height="5.1"/>
<path class="st8" d="M-198.4,255.7c-0.2,0.1-1.6-0.9-1.8-1c-0.2-0.1-1.5-1.2-1.5-1.5s1.4-1.4,1.6-1.6c0.2-0.1,1.6-1.1,1.7-1
	c0.2,0.1,0.2,2.3,0.2,2.6C-198.2,253.5-198.2,255.6-198.4,255.7L-198.4,255.7z"/>
<path class="st8" d="M-134.8,255.7c0.2,0.1,1.6-0.9,1.8-1s1.5-1.2,1.5-1.5s-1.4-1.4-1.6-1.6c-0.2-0.1-1.6-1.1-1.7-1
	c-0.2,0.1-0.2,2.3-0.2,2.6S-134.9,255.6-134.8,255.7L-134.8,255.7z"/>
<rect x="-233.3" y="260.8" class="st6" width="24.5" height="5.1"/>
<path class="st6" d="M-233.2,265.8c-0.2,0.1-1.6-0.9-1.8-1c-0.2-0.1-1.5-1.2-1.5-1.5c0-0.3,1.4-1.4,1.6-1.6c0.2-0.1,1.6-1.1,1.7-1
	c0.2,0.1,0.2,2.3,0.2,2.6C-233,263.6-233.1,265.7-233.2,265.8L-233.2,265.8z"/>
<path class="st6" d="M-208.9,265.8c0.2,0.1,1.6-0.9,1.8-1c0.2-0.1,1.5-1.2,1.5-1.5c0-0.3-1.4-1.4-1.6-1.6c-0.2-0.1-1.6-1.1-1.7-1
	c-0.2,0.1-0.2,2.3-0.2,2.6C-209.1,263.6-209.1,265.7-208.9,265.8L-208.9,265.8z"/>
<rect x="-265.1" y="103.9" class="st5" width="92" height="2.8"/>
<rect x="-278.2" y="113.3" class="st9" width="218.9" height="1.9"/>
<rect x="-161.2" y="227" class="st7" width="64.3" height="5.1"/>
<path class="st7" d="M-161.1,232.1c-0.2,0.1-1.6-0.9-1.8-1s-1.5-1.2-1.5-1.5s1.4-1.4,1.6-1.6c0.2-0.1,1.6-1.1,1.7-1
	c0.2,0.1,0.2,2.3,0.2,2.6S-161,232-161.1,232.1L-161.1,232.1z"/>
<path class="st7" d="M-97.5,232.1c0.2,0.1,1.6-0.9,1.8-1s1.5-1.2,1.5-1.5s-1.4-1.4-1.6-1.6c-0.2-0.1-1.6-1.1-1.7-1
	c-0.2,0.1-0.2,2.3-0.2,2.6S-97.7,232-97.5,232.1L-97.5,232.1z"/>
<rect x="-160.2" y="238.6" class="st7" width="64.3" height="5.1"/>
<path class="st7" d="M-160.1,243.7c-0.2,0.1-1.6-0.9-1.8-1s-1.5-1.2-1.5-1.5s1.4-1.4,1.6-1.6c0.2-0.1,1.6-1.1,1.7-1
	c0.2,0.1,0.2,2.3,0.2,2.6C-159.9,241.4-160,243.5-160.1,243.7L-160.1,243.7z"/>
<path class="st7" d="M-96.5,243.7c0.2,0.1,1.6-0.9,1.8-1s1.5-1.2,1.5-1.5s-1.4-1.4-1.6-1.6c-0.2-0.1-1.6-1.1-1.7-1
	c-0.2,0.1-0.2,2.3-0.2,2.6C-96.7,241.4-96.7,243.5-96.5,243.7L-96.5,243.7z"/>
<rect x="-124.6" y="251.2" class="st7" width="24.5" height="5.1"/>
<path class="st7" d="M-124.5,256.3c-0.2,0.1-1.6-0.9-1.8-1s-1.5-1.2-1.5-1.5s1.4-1.4,1.6-1.6c0.2-0.1,1.6-1.1,1.7-1
	c0.2,0.1,0.2,2.3,0.2,2.6C-124.3,254-124.4,256.1-124.5,256.3L-124.5,256.3z"/>
<path class="st7" d="M-100.2,256.3c0.2,0.1,1.6-0.9,1.8-1s1.5-1.2,1.5-1.5s-1.4-1.4-1.6-1.6c-0.2-0.1-1.6-1.1-1.7-1
	c-0.2,0.1-0.2,2.3-0.2,2.6C-100.4,254-100.3,256.1-100.2,256.3L-100.2,256.3z"/>
<rect x="-197.8" y="261" class="st7" width="114" height="5.1"/>
<path class="st7" d="M-197.7,266.1c-0.2,0.1-1.6-0.9-1.8-1c-0.2-0.1-1.5-1.2-1.5-1.5c0-0.3,1.4-1.4,1.5-1.6c0.2-0.1,1.5-1.1,1.7-1
	s0.2,2.3,0.2,2.6C-197.5,263.8-197.5,266-197.7,266.1L-197.7,266.1z"/>
<path class="st7" d="M-84,266.1c0.2,0.1,1.6-0.9,1.8-1s1.5-1.2,1.5-1.5c0-0.3-1.4-1.4-1.5-1.6c-0.2-0.1-1.5-1.1-1.7-1
	s-0.2,2.3-0.2,2.6C-84.2,263.8-84.2,266-84,266.1L-84,266.1z"/>
<rect x="-232.3" y="271.8" class="st6" width="24.5" height="5.1"/>
<path class="st6" d="M-232.2,276.8c-0.2,0.1-1.6-0.9-1.8-1c-0.2-0.1-1.5-1.2-1.5-1.5c0-0.3,1.4-1.4,1.6-1.6c0.2-0.1,1.6-1.1,1.7-1
	c0.2,0.1,0.2,2.3,0.2,2.6C-231.9,274.6-232,276.7-232.2,276.8L-232.2,276.8z"/>
<path class="st6" d="M-207.8,276.8c0.2,0.1,1.6-0.9,1.8-1c0.2-0.1,1.5-1.2,1.5-1.5c0-0.3-1.4-1.4-1.6-1.6c-0.2-0.1-1.6-1.1-1.7-1
	c-0.2,0.1-0.2,2.3-0.2,2.6C-208,274.6-208,276.7-207.8,276.8L-207.8,276.8z"/>
<rect x="-232.3" y="284.4" class="st6" width="24.5" height="5.1"/>
<path class="st6" d="M-232.2,289.4c-0.2,0.1-1.6-0.9-1.8-1c-0.2-0.1-1.5-1.2-1.5-1.5c0-0.3,1.4-1.4,1.6-1.6c0.2-0.1,1.6-1.1,1.7-1
	c0.2,0.1,0.2,2.3,0.2,2.6C-231.9,287.2-232,289.3-232.2,289.4L-232.2,289.4z"/>
<path class="st6" d="M-207.8,289.4c0.2,0.1,1.6-0.9,1.8-1c0.2-0.1,1.5-1.2,1.5-1.5c0-0.3-1.4-1.4-1.6-1.6c-0.2-0.1-1.6-1.1-1.7-1
	c-0.2,0.1-0.2,2.3-0.2,2.6C-208,287.2-208,289.3-207.8,289.4L-207.8,289.4z"/>
<rect x="-197.8" y="271.8" class="st8" width="40.2" height="5.1"/>
<path class="st8" d="M-197.7,276.8c-0.2,0.1-1.6-0.9-1.8-1c-0.2-0.1-1.5-1.2-1.5-1.5c0-0.3,1.4-1.4,1.6-1.6c0.2-0.1,1.6-1.1,1.7-1
	c0.2,0.1,0.2,2.3,0.2,2.6C-197.5,274.6-197.5,276.7-197.7,276.8L-197.7,276.8z"/>
<path class="st8" d="M-157.7,276.8c0.2,0.1,1.6-0.9,1.8-1s1.5-1.2,1.5-1.5c0-0.3-1.4-1.4-1.6-1.6c-0.2-0.1-1.6-1.1-1.7-1
	c-0.2,0.1-0.2,2.3-0.2,2.6C-157.9,274.6-157.9,276.7-157.7,276.8L-157.7,276.8z"/>
<rect x="-197.4" y="283.9" class="st8" width="40.2" height="5.1"/>
<path class="st8" d="M-197.3,288.9c-0.2,0.1-1.6-0.9-1.8-1c-0.2-0.1-1.5-1.2-1.5-1.5c0-0.3,1.4-1.4,1.6-1.6c0.2-0.1,1.6-1.1,1.7-1
	c0.2,0.1,0.2,2.3,0.2,2.6C-197.1,286.7-197.1,288.8-197.3,288.9L-197.3,288.9z"/>
<path class="st8" d="M-157.3,288.9c0.2,0.1,1.6-0.9,1.8-1s1.5-1.2,1.5-1.5c0-0.3-1.4-1.4-1.6-1.6c-0.2-0.1-1.6-1.1-1.7-1
	c-0.2,0.1-0.2,2.3-0.2,2.6C-157.6,286.7-157.5,288.8-157.3,288.9L-157.3,288.9z"/>
<rect x="-148.1" y="271.5" class="st7" width="64.3" height="5.1"/>
<path class="st7" d="M-148,276.6c-0.2,0.1-1.6-0.9-1.8-1s-1.5-1.2-1.5-1.5c0-0.3,1.4-1.4,1.6-1.6c0.2-0.1,1.6-1.1,1.7-1
	c0.2,0.1,0.2,2.3,0.2,2.6C-147.7,274.4-147.8,276.5-148,276.6L-148,276.6z"/>
<path class="st7" d="M-84.3,276.6c0.2,0.1,1.6-0.9,1.8-1s1.5-1.2,1.5-1.5c0-0.3-1.4-1.4-1.6-1.6c-0.2-0.1-1.6-1.1-1.7-1
	c-0.2,0.1-0.2,2.3-0.2,2.6C-84.6,274.4-84.5,276.5-84.3,276.6L-84.3,276.6z"/>
<rect x="-147.1" y="283.1" class="st7" width="64.3" height="5.1"/>
<path class="st7" d="M-147,288.2c-0.2,0.1-1.6-0.9-1.8-1s-1.5-1.2-1.5-1.5c0-0.3,1.4-1.4,1.6-1.6c0.2-0.1,1.6-1.1,1.7-1
	c0.2,0.1,0.2,2.3,0.2,2.6C-146.7,285.9-146.8,288-147,288.2L-147,288.2z"/>
<path class="st7" d="M-83.3,288.2c0.2,0.1,1.6-0.9,1.8-1s1.5-1.2,1.5-1.5c0-0.3-1.4-1.4-1.6-1.6c-0.2-0.1-1.6-1.1-1.7-1
	c-0.2,0.1-0.2,2.3-0.2,2.6C-83.5,285.9-83.5,288-83.3,288.2L-83.3,288.2z"/>
<rect x="-232.3" y="293.8" class="st6" width="24.5" height="5.1"/>
<path class="st6" d="M-232.2,298.9c-0.2,0.1-1.6-0.9-1.8-1c-0.2-0.1-1.5-1.2-1.5-1.5c0-0.3,1.4-1.4,1.6-1.6c0.2-0.1,1.6-1.1,1.7-1
	c0.2,0.1,0.2,2.3,0.2,2.6C-231.9,296.7-232,298.8-232.2,298.9L-232.2,298.9z"/>
<path class="st6" d="M-207.8,298.9c0.2,0.1,1.6-0.9,1.8-1c0.2-0.1,1.5-1.2,1.5-1.5c0-0.3-1.4-1.4-1.6-1.6c-0.2-0.1-1.6-1.1-1.7-1
	c-0.2,0.1-0.2,2.3-0.2,2.6C-208,296.7-208,298.8-207.8,298.9L-207.8,298.9z"/>
<rect x="-232.3" y="306.4" class="st6" width="24.5" height="5.1"/>
<path class="st6" d="M-232.2,311.5c-0.2,0.1-1.6-0.9-1.8-1c-0.2-0.1-1.5-1.2-1.5-1.5s1.4-1.4,1.6-1.6c0.2-0.1,1.6-1.1,1.7-1
	c0.2,0.1,0.2,2.3,0.2,2.6C-231.9,309.3-232,311.4-232.2,311.5L-232.2,311.5z"/>
<path class="st6" d="M-207.8,311.5c0.2,0.1,1.6-0.9,1.8-1c0.2-0.1,1.5-1.2,1.5-1.5s-1.4-1.4-1.6-1.6c-0.2-0.1-1.6-1.1-1.7-1
	c-0.2,0.1-0.2,2.3-0.2,2.6S-208,311.4-207.8,311.5L-207.8,311.5z"/>
<rect x="-197.8" y="293.8" class="st8" width="40.2" height="5.1"/>
<path class="st8" d="M-197.7,298.9c-0.2,0.1-1.6-0.9-1.8-1c-0.2-0.1-1.5-1.2-1.5-1.5c0-0.3,1.4-1.4,1.6-1.6c0.2-0.1,1.6-1.1,1.7-1
	c0.2,0.1,0.2,2.3,0.2,2.6C-197.5,296.7-197.5,298.8-197.7,298.9L-197.7,298.9z"/>
<path class="st8" d="M-157.7,298.9c0.2,0.1,1.6-0.9,1.8-1s1.5-1.2,1.5-1.5c0-0.3-1.4-1.4-1.6-1.6c-0.2-0.1-1.6-1.1-1.7-1
	c-0.2,0.1-0.2,2.3-0.2,2.6C-157.9,296.7-157.9,298.8-157.7,298.9L-157.7,298.9z"/>
<rect x="-197.4" y="305.9" class="st8" width="40.2" height="5.1"/>
<path class="st8" d="M-197.3,311c-0.2,0.1-1.6-0.9-1.8-1c-0.2-0.1-1.5-1.2-1.5-1.5c0-0.3,1.4-1.4,1.6-1.6c0.2-0.1,1.6-1.1,1.7-1
	c0.2,0.1,0.2,2.3,0.2,2.6C-197.1,308.8-197.1,310.9-197.3,311L-197.3,311z"/>
<path class="st8" d="M-157.3,311c0.2,0.1,1.6-0.9,1.8-1s1.5-1.2,1.5-1.5c0-0.3-1.4-1.4-1.6-1.6c-0.2-0.1-1.6-1.1-1.7-1
	c-0.2,0.1-0.2,2.3-0.2,2.6C-157.6,308.8-157.5,310.9-157.3,311L-157.3,311z"/>
<rect x="-148.1" y="293.6" class="st7" width="64.3" height="5.1"/>
<path class="st7" d="M-148,298.7c-0.2,0.1-1.6-0.9-1.8-1s-1.5-1.2-1.5-1.5c0-0.3,1.4-1.4,1.6-1.6c0.2-0.1,1.6-1.1,1.7-1
	c0.2,0.1,0.2,2.3,0.2,2.6C-147.7,296.4-147.8,298.5-148,298.7L-148,298.7z"/>
<path class="st7" d="M-84.3,298.7c0.2,0.1,1.6-0.9,1.8-1s1.5-1.2,1.5-1.5c0-0.3-1.4-1.4-1.6-1.6c-0.2-0.1-1.6-1.1-1.7-1
	c-0.2,0.1-0.2,2.3-0.2,2.6C-84.6,296.4-84.5,298.5-84.3,298.7L-84.3,298.7z"/>
<rect x="-147.1" y="305.2" class="st7" width="64.3" height="5.1"/>
<path class="st7" d="M-147,310.2c-0.2,0.1-1.6-0.9-1.8-1s-1.5-1.2-1.5-1.5c0-0.3,1.4-1.4,1.6-1.6c0.2-0.1,1.6-1.1,1.7-1
	c0.2,0.1,0.2,2.3,0.2,2.6C-146.7,308-146.8,310.1-147,310.2L-147,310.2z"/>
<path class="st7" d="M-83.3,310.2c0.2,0.1,1.6-0.9,1.8-1s1.5-1.2,1.5-1.5c0-0.3-1.4-1.4-1.6-1.6c-0.2-0.1-1.6-1.1-1.7-1
	c-0.2,0.1-0.2,2.3-0.2,2.6S-83.5,310.1-83.3,310.2L-83.3,310.2z"/>
<rect x="-245.4" y="320.5" class="st6" width="24.5" height="5.1"/>
<path class="st6" d="M-245.3,325.6c-0.2,0.1-1.6-0.9-1.8-1c-0.2-0.1-1.5-1.2-1.5-1.5s1.4-1.4,1.6-1.6c0.2-0.1,1.6-1.1,1.7-1
	c0.2,0.1,0.2,2.3,0.2,2.6S-245.2,325.5-245.3,325.6L-245.3,325.6z"/>
<path class="st6" d="M-221,325.6c0.2,0.1,1.6-0.9,1.8-1c0.2-0.1,1.5-1.2,1.5-1.5s-1.4-1.4-1.6-1.6c-0.2-0.1-1.6-1.1-1.7-1
	c-0.2,0.1-0.2,2.3-0.2,2.6S-221.1,325.5-221,325.6L-221,325.6z"/>
<rect x="-245.4" y="333.1" class="st6" width="24.5" height="5.1"/>
<path class="st6" d="M-245.3,338.2c-0.2,0.1-1.6-0.9-1.8-1c-0.2-0.1-1.5-1.2-1.5-1.5s1.4-1.4,1.6-1.6c0.2-0.1,1.6-1.1,1.7-1
	c0.2,0.1,0.2,2.3,0.2,2.6S-245.2,338.1-245.3,338.2L-245.3,338.2z"/>
<path class="st6" d="M-221,338.2c0.2,0.1,1.6-0.9,1.8-1c0.2-0.1,1.5-1.2,1.5-1.5s-1.4-1.4-1.6-1.6c-0.2-0.1-1.6-1.1-1.7-1
	c-0.2,0.1-0.2,2.3-0.2,2.6S-221.1,338.1-221,338.2L-221,338.2z"/>
<rect x="-210.9" y="320.5" class="st8" width="40.2" height="5.1"/>
<path class="st8" d="M-210.8,325.6c-0.2,0.1-1.6-0.9-1.8-1c-0.2-0.1-1.5-1.2-1.5-1.5s1.4-1.4,1.6-1.6c0.2-0.1,1.6-1.1,1.7-1
	c0.2,0.1,0.2,2.3,0.2,2.6S-210.7,325.5-210.8,325.6L-210.8,325.6z"/>
<path class="st8" d="M-170.9,325.6c0.2,0.1,1.6-0.9,1.8-1s1.5-1.2,1.5-1.5s-1.4-1.4-1.6-1.6c-0.2-0.1-1.6-1.1-1.7-1
	c-0.2,0.1-0.2,2.3-0.2,2.6S-171.1,325.5-170.9,325.6L-170.9,325.6z"/>
<rect x="-210.6" y="332.6" class="st8" width="40.2" height="5.1"/>
<path class="st8" d="M-210.5,337.7c-0.2,0.1-1.6-0.9-1.8-1c-0.2-0.1-1.5-1.2-1.5-1.5s1.4-1.4,1.6-1.6c0.2-0.1,1.6-1.1,1.7-1
	c0.2,0.1,0.2,2.3,0.2,2.6C-210.3,335.4-210.3,337.6-210.5,337.7L-210.5,337.7z"/>
<path class="st8" d="M-170.5,337.7c0.2,0.1,1.6-0.9,1.8-1s1.5-1.2,1.5-1.5s-1.4-1.4-1.6-1.6c-0.2-0.1-1.6-1.1-1.7-1
	c-0.2,0.1-0.2,2.3-0.2,2.6C-170.7,335.4-170.7,337.6-170.5,337.7L-170.5,337.7z"/>
<rect x="-161.2" y="320.3" class="st7" width="64.3" height="5.1"/>
<path class="st7" d="M-161.1,325.4c-0.2,0.1-1.6-0.9-1.8-1s-1.5-1.2-1.5-1.5s1.4-1.4,1.6-1.6c0.2-0.1,1.6-1.1,1.7-1
	c0.2,0.1,0.2,2.3,0.2,2.6C-160.9,323.1-161,325.2-161.1,325.4L-161.1,325.4z"/>
<path class="st7" d="M-97.5,325.4c0.2,0.1,1.6-0.9,1.8-1s1.5-1.2,1.5-1.5s-1.4-1.4-1.6-1.6c-0.2-0.1-1.6-1.1-1.7-1
	c-0.2,0.1-0.2,2.3-0.2,2.6C-97.7,323.1-97.7,325.2-97.5,325.4L-97.5,325.4z"/>
<rect x="-160.2" y="331.9" class="st7" width="64.3" height="5.1"/>
<path class="st7" d="M-160.1,336.9c-0.2,0.1-1.6-0.9-1.8-1s-1.5-1.2-1.5-1.5s1.4-1.4,1.6-1.6c0.2-0.1,1.6-1.1,1.7-1
	c0.2,0.1,0.2,2.3,0.2,2.6S-160,336.8-160.1,336.9L-160.1,336.9z"/>
<path class="st7" d="M-96.5,336.9c0.2,0.1,1.6-0.9,1.8-1s1.5-1.2,1.5-1.5s-1.4-1.4-1.6-1.6c-0.2-0.1-1.6-1.1-1.7-1
	c-0.2,0.1-0.2,2.3-0.2,2.6S-96.7,336.8-96.5,336.9L-96.5,336.9z"/>
<rect x="-233.3" y="344.5" class="st6" width="24.5" height="5.1"/>
<path class="st6" d="M-233.2,349.5c-0.2,0.1-1.6-0.9-1.8-1c-0.2-0.1-1.5-1.2-1.5-1.5s1.4-1.4,1.6-1.6c0.2-0.1,1.6-1.1,1.7-1
	c0.2,0.1,0.2,2.3,0.2,2.6S-233.1,349.4-233.2,349.5L-233.2,349.5z"/>
<path class="st6" d="M-208.9,349.5c0.2,0.1,1.6-0.9,1.8-1c0.2-0.1,1.5-1.2,1.5-1.5s-1.4-1.4-1.6-1.6c-0.2-0.1-1.6-1.1-1.7-1
	c-0.2,0.1-0.2,2.3-0.2,2.6S-209.1,349.4-208.9,349.5L-208.9,349.5z"/>
<rect x="-198.5" y="344" class="st8" width="64.3" height="5.1"/>
<path class="st8" d="M-198.4,349c-0.2,0.1-1.6-0.9-1.8-1c-0.2-0.1-1.5-1.2-1.5-1.5s1.4-1.4,1.6-1.6c0.2-0.1,1.6-1.1,1.7-1
	c0.2,0.1,0.2,2.3,0.2,2.6C-198.2,346.8-198.2,348.9-198.4,349L-198.4,349z"/>
<path class="st8" d="M-134.8,349c0.2,0.1,1.6-0.9,1.8-1s1.5-1.2,1.5-1.5s-1.4-1.4-1.6-1.6c-0.2-0.1-1.6-1.1-1.7-1
	c-0.2,0.1-0.2,2.3-0.2,2.6S-134.9,348.9-134.8,349L-134.8,349z"/>
<rect x="-233.3" y="354" class="st6" width="24.5" height="5.1"/>
<path class="st6" d="M-233.2,359.1c-0.2,0.1-1.6-0.9-1.8-1c-0.2-0.1-1.5-1.2-1.5-1.5s1.4-1.4,1.6-1.6c0.2-0.1,1.6-1.1,1.7-1
	c0.2,0.1,0.2,2.3,0.2,2.6C-233,356.8-233.1,359-233.2,359.1L-233.2,359.1z"/>
<path class="st6" d="M-208.9,359.1c0.2,0.1,1.6-0.9,1.8-1c0.2-0.1,1.5-1.2,1.5-1.5s-1.4-1.4-1.6-1.6c-0.2-0.1-1.6-1.1-1.7-1
	c-0.2,0.1-0.2,2.3-0.2,2.6C-209.1,356.8-209.1,359-208.9,359.1L-208.9,359.1z"/>
<rect x="-124.6" y="344.5" class="st7" width="24.5" height="5.1"/>
<path class="st7" d="M-124.5,349.5c-0.2,0.1-1.6-0.9-1.8-1s-1.5-1.2-1.5-1.5s1.4-1.4,1.6-1.6c0.2-0.1,1.6-1.1,1.7-1
	c0.2,0.1,0.2,2.3,0.2,2.6S-124.4,349.4-124.5,349.5L-124.5,349.5z"/>
<path class="st7" d="M-100.2,349.5c0.2,0.1,1.6-0.9,1.8-1s1.5-1.2,1.5-1.5s-1.4-1.4-1.6-1.6c-0.2-0.1-1.6-1.1-1.7-1
	c-0.2,0.1-0.2,2.3-0.2,2.6C-100.4,347.3-100.3,349.4-100.2,349.5L-100.2,349.5z"/>
<rect x="-197.8" y="354.3" class="st7" width="114" height="5.1"/>
<path class="st7" d="M-197.7,359.3c-0.2,0.1-1.6-0.9-1.8-1c-0.2-0.1-1.5-1.2-1.5-1.5s1.4-1.4,1.5-1.6c0.2-0.1,1.5-1.1,1.7-1
	s0.2,2.3,0.2,2.6C-197.5,357.1-197.5,359.2-197.7,359.3L-197.7,359.3z"/>
<path class="st7" d="M-84,359.3c0.2,0.1,1.6-0.9,1.8-1s1.5-1.2,1.5-1.5s-1.4-1.4-1.5-1.6c-0.2-0.1-1.5-1.1-1.7-1s-0.2,2.3-0.2,2.6
	C-84.2,357.1-84.2,359.2-84,359.3L-84,359.3z"/>
<rect x="-233.3" y="365.1" class="st6" width="24.5" height="5.1"/>
<path class="st6" d="M-233.2,370.2c-0.2,0.1-1.6-0.9-1.8-1c-0.2-0.1-1.5-1.2-1.5-1.5s1.4-1.4,1.6-1.6c0.2-0.1,1.6-1.1,1.7-1
	c0.2,0.1,0.2,2.3,0.2,2.6C-233,367.9-233.1,370-233.2,370.2L-233.2,370.2z"/>
<path class="st6" d="M-208.9,370.2c0.2,0.1,1.6-0.9,1.8-1c0.2-0.1,1.5-1.2,1.5-1.5s-1.4-1.4-1.6-1.6c-0.2-0.1-1.6-1.1-1.7-1
	c-0.2,0.1-0.2,2.3-0.2,2.6C-209.1,367.9-209.1,370-208.9,370.2L-208.9,370.2z"/>
<rect x="-198.5" y="364.6" class="st8" width="64.3" height="5.1"/>
<path class="st8" d="M-198.4,369.6c-0.2,0.1-1.6-0.9-1.8-1c-0.2-0.1-1.5-1.2-1.5-1.5s1.4-1.4,1.6-1.6c0.2-0.1,1.6-1.1,1.7-1
	c0.2,0.1,0.2,2.3,0.2,2.6C-198.2,367.4-198.2,369.5-198.4,369.6L-198.4,369.6z"/>
<path class="st8" d="M-134.8,369.6c0.2,0.1,1.6-0.9,1.8-1s1.5-1.2,1.5-1.5s-1.4-1.4-1.6-1.6c-0.2-0.1-1.6-1.1-1.7-1
	c-0.2,0.1-0.2,2.3-0.2,2.6S-134.9,369.5-134.8,369.6L-134.8,369.6z"/>
<rect x="-124.6" y="365.1" class="st7" width="24.5" height="5.1"/>
<path class="st7" d="M-124.5,370.2c-0.2,0.1-1.6-0.9-1.8-1s-1.5-1.2-1.5-1.5s1.4-1.4,1.6-1.6c0.2-0.1,1.6-1.1,1.7-1
	c0.2,0.1,0.2,2.3,0.2,2.6C-124.3,367.9-124.4,370-124.5,370.2L-124.5,370.2z"/>
<path class="st7" d="M-100.2,370.2c0.2,0.1,1.6-0.9,1.8-1s1.5-1.2,1.5-1.5s-1.4-1.4-1.6-1.6c-0.2-0.1-1.6-1.1-1.7-1
	c-0.2,0.1-0.2,2.3-0.2,2.6C-100.4,367.9-100.3,370-100.2,370.2L-100.2,370.2z"/>
<rect x="-234.4" y="375.6" class="st6" width="24.5" height="5.1"/>
<path class="st6" d="M-234.3,380.7c-0.2,0.1-1.6-0.9-1.8-1c-0.2-0.1-1.5-1.2-1.5-1.5s1.4-1.4,1.6-1.6c0.2-0.1,1.6-1.1,1.7-1
	c0.2,0.1,0.2,2.3,0.2,2.6C-234,378.4-234.1,380.5-234.3,380.7L-234.3,380.7z"/>
<path class="st6" d="M-209.9,380.7c0.2,0.1,1.6-0.9,1.8-1c0.2-0.1,1.5-1.2,1.5-1.5s-1.4-1.4-1.6-1.6c-0.2-0.1-1.6-1.1-1.7-1
	c-0.2,0.1-0.2,2.3-0.2,2.6C-210.1,378.4-210.1,380.5-209.9,380.7L-209.9,380.7z"/>
<rect x="-152.1" y="375.6" class="st7" width="69.3" height="5.1"/>
<path class="st7" d="M-152,380.7c-0.2,0.1-1.6-0.9-1.8-1s-1.5-1.2-1.5-1.5s1.4-1.4,1.6-1.6c0.2-0.1,1.6-1.1,1.7-1
	c0.2,0.1,0.2,2.3,0.2,2.6C-151.8,378.4-151.9,380.5-152,380.7L-152,380.7z"/>
<path class="st7" d="M-83.1,380.7c0.2,0.1,1.6-0.9,1.8-1s1.5-1.2,1.5-1.5s-1.4-1.4-1.6-1.6c-0.2-0.1-1.6-1.1-1.7-1
	c-0.2,0.1-0.2,2.3-0.2,2.6C-83.3,378.4-83.3,380.5-83.1,380.7L-83.1,380.7z"/>
<rect x="-233.8" y="384.7" class="st7" width="150.7" height="5.1"/>
<path class="st7" d="M-233.6,389.7c-0.2,0.1-2.1-0.9-2.3-1c-0.2-0.1-2-1.2-1.9-1.5c0-0.3,1.8-1.4,2-1.6c0.2-0.1,2-1.1,2.2-1
	s0.3,2.3,0.3,2.6C-233.4,387.5-233.4,389.6-233.6,389.7L-233.6,389.7z"/>
<path class="st7" d="M-83.5,389.7c0.2,0.1,2.1-0.9,2.3-1s2-1.2,1.9-1.5c0-0.3-1.8-1.4-2-1.6c-0.2-0.1-2-1.1-2.2-1s-0.3,2.3-0.3,2.6
	S-83.8,389.6-83.5,389.7L-83.5,389.7z"/>
<rect x="-233.8" y="393.2" class="st7" width="150.7" height="5.1"/>
<path class="st7" d="M-233.6,398.3c-0.2,0.1-2.1-0.9-2.3-1c-0.2-0.1-2-1.2-1.9-1.5c0-0.3,1.8-1.4,2-1.6c0.2-0.1,2-1.1,2.2-1
	s0.3,2.3,0.3,2.6C-233.4,396-233.4,398.2-233.6,398.3L-233.6,398.3z"/>
<path class="st7" d="M-83.5,398.3c0.2,0.1,2.1-0.9,2.3-1s2-1.2,1.9-1.5c0-0.3-1.8-1.4-2-1.6c-0.2-0.1-2-1.1-2.2-1s-0.3,2.3-0.3,2.6
	C-83.8,396-83.8,398.2-83.5,398.3L-83.5,398.3z"/>
<rect x="-198.3" y="375.6" class="st8" width="35.7" height="5.1"/>
<path class="st8" d="M-198.2,380.7c-0.3,0.1-2.4-0.9-2.6-1s-2.2-1.2-2.2-1.5s2.1-1.4,2.3-1.6c0.2-0.1,2.3-1.1,2.5-1s0.3,2.3,0.3,2.6
	C-197.9,378.4-198,380.5-198.2,380.7L-198.2,380.7z"/>
<path class="st8" d="M-162.7,380.7c0.3,0.1,2.4-0.9,2.6-1c0.2-0.1,2.2-1.2,2.2-1.5s-2.1-1.4-2.3-1.6c-0.2-0.1-2.3-1.1-2.5-1
	s-0.3,2.3-0.3,2.6C-163,378.4-162.9,380.5-162.7,380.7L-162.7,380.7z"/>
<rect x="-185.5" y="401.8" class="st6" width="24.5" height="5.1"/>
<path class="st6" d="M-161.1,406.8c0.2,0.1,1.6-0.9,1.8-1s1.5-1.2,1.5-1.5s-1.4-1.4-1.6-1.6c-0.2-0.1-1.6-1.1-1.7-1
	c-0.2,0.1-0.2,2.3-0.2,2.6C-161.4,404.6-161.3,406.7-161.1,406.8L-161.1,406.8z"/>
<path class="st6" d="M-185.5,406.8c-0.2,0.1-1.6-0.9-1.8-1s-1.5-1.2-1.5-1.5s1.4-1.4,1.6-1.6c0.2-0.1,1.6-1.1,1.7-1
	c0.2,0.1,0.2,2.3,0.2,2.6S-185.3,406.7-185.5,406.8L-185.5,406.8z"/>
<rect x="-232.8" y="401.8" class="st8" width="35.7" height="5.1"/>
<path class="st8" d="M-197.2,406.8c0.3,0.1,2.4-0.9,2.6-1c0.2-0.1,2.2-1.2,2.2-1.5s-2.1-1.4-2.3-1.6c-0.2-0.1-2.3-1.1-2.5-1
	s-0.3,2.3-0.3,2.6S-197.4,406.7-197.2,406.8L-197.2,406.8z"/>
<path class="st8" d="M-232.7,406.8c-0.3,0.1-2.4-0.9-2.6-1s-2.2-1.2-2.2-1.5s2.1-1.4,2.3-1.6c0.2-0.1,2.3-1.1,2.5-1s0.3,2.3,0.3,2.6
	C-232.4,404.6-232.5,406.7-232.7,406.8L-232.7,406.8z"/>
</svg>
