<?xml version="1.0" encoding="iso-8859-1"?>
<!-- Generator: Adobe Illustrator 19.0.0, SVG Export Plug-In . SVG Version: 6.00 Build 0)  -->
<svg version="1.1" id="Layer_1" xmlns="http://www.w3.org/2000/svg" xmlns:xlink="http://www.w3.org/1999/xlink" x="0px" y="0px"
	 viewBox="128 -97.6 406.9 345.6" style="enable-background:new 128 -97.6 406.9 345.6;" xml:space="preserve">
<g transform="translate(-707.27)">
	<path style="fill:#F2F2F2;stroke:#333333;stroke-miterlimit:10;" d="M731.3,285.4l89.9,2l7.4,70.4H723.5L731.3,285.4z"/>
	<path style="fill:#CCCCCC;stroke:#333333;stroke-miterlimit:10;" d="M731.3,285.4l-2.3,21.9h94.4l-2.1-19.9L731.3,285.4
		L731.3,285.4z"/>
	<path style="fill:#FFFFFF;stroke:#333333;stroke-miterlimit:10;" d="M591.2,302.3h369.7c10.2,0,18.5-8.3,18.5-18.5v-230
		c0-10.2-8.3-18.5-18.5-18.5H591.2c-10.2,0-18.5,8.3-18.5,18.5v230C572.7,294,581,302.3,591.2,302.3z"/>
	<path style="fill:#333333;" d="M572.6,29.6v235.5h406.9V29.6H572.6z M582.2,41.7h386l-51.8,194l-289.2-19.3L582.2,41.7z"/>
	<path style="fill:#333333;" d="M593.7,12.3h364.8c11.6,0,21.1,9.4,21.1,21.1v70c0,11.6-9.4,21.1-21.1,21.1H593.7
		c-11.6,0-21.1-9.4-21.1-21.1v-70C572.6,21.8,582.1,12.3,593.7,12.3z"/>
	<rect x="589.1" y="30.2" style="fill:#ECECEC;stroke:#333333;stroke-miterlimit:10;" width="374" height="215.5"/>
	<path style="fill:#FFFFFF;stroke:#333333;stroke-miterlimit:10;" d="M696.3,347.2h159.6c1.7,0,3.1,1.4,3.1,3.1v4.5
		c0,1.7-1.4,3.1-3.1,3.1H696.3c-1.7,0-3.1-1.4-3.1-3.1v-4.5C693.2,348.6,694.6,347.2,696.3,347.2z"/>
	<circle style="fill:#333333;" cx="776.1" cy="284.2" r="10.5"/>
	<rect x="616.1" y="30.2" style="fill:#FFFFFF;stroke:#333333;stroke-miterlimit:10;" width="319.9" height="215.5"/>
	<rect x="621.3" y="36.5" style="fill:#66BB6A;" width="309.7" height="52"/>
	<rect x="624" y="95" style="fill:#1E88E5;" width="32" height="9.8"/>
	<rect x="658.5" y="95" style="fill:#1E88E5;" width="32" height="9.8"/>
	<rect x="693.4" y="95" style="fill:#1E88E5;" width="41" height="9.8"/>
	<rect x="737.6" y="95" style="fill:#1E88E5;" width="30.2" height="9.8"/>
	<rect x="770" y="95" style="fill:#1E88E5;" width="41" height="9.8"/>
	<rect x="855.9" y="111" style="fill:#F06292;" width="75.1" height="130"/>
	<path style="fill:#D81B60;" d="M886.4,115.3l-8.6,8.6l-10.6,53.9l-11.3,18.6V241h11l51.7-25.5c0,0,10.1-38.8,10.1-40.8
		S886.4,115.3,886.4,115.3L886.4,115.3z"/>
	<rect x="742.9" y="111.3" style="fill:#999999;" width="68" height="6.5"/>
	<rect x="743.4" y="120.8" style="fill:#999999;" width="57.9" height="2"/>
	<rect x="744.1" y="136.7" style="fill:#AED581;" width="35.7" height="5"/>
	<rect x="744.1" y="145.3" style="fill:#AED581;" width="29.7" height="5"/>
	<rect x="744.1" y="153.3" style="fill:#AED581;" width="29.7" height="5"/>
	<rect x="744.1" y="161.4" style="fill:#AED581;" width="25.7" height="5"/>
	<rect x="744.1" y="169.4" style="fill:#AED581;" width="25.7" height="5"/>
	<rect x="744.1" y="178" style="fill:#AED581;" width="29.7" height="5"/>
	<rect x="744.1" y="186.8" style="fill:#AED581;" width="35" height="5"/>
	<rect x="744.1" y="194.3" style="fill:#AED581;" width="35" height="5"/>
	<rect x="784.2" y="136.7" style="fill:#AED581;" width="1.7" height="5"/>
	<rect x="784.2" y="144.7" style="fill:#AED581;" width="1.7" height="5"/>
	<rect x="784.2" y="152.9" style="fill:#AED581;" width="1.7" height="5"/>
	<rect x="784.2" y="160.6" style="fill:#AED581;" width="1.7" height="5"/>
	<rect x="784.2" y="168.9" style="fill:#AED581;" width="1.7" height="5"/>
	<rect x="784.2" y="177.6" style="fill:#AED581;" width="1.7" height="5"/>
	<rect x="784.2" y="186.7" style="fill:#AED581;" width="1.7" height="5"/>
	<rect x="784.2" y="194.2" style="fill:#AED581;" width="1.7" height="5"/>
	<rect x="793.8" y="136.7" style="fill:#AED581;" width="47.5" height="5"/>
	<rect x="793.7" y="145.3" style="fill:#AED581;" width="29.7" height="5"/>
	<rect x="793.8" y="153.3" style="fill:#AED581;" width="53.2" height="5"/>
	<rect x="793.7" y="161.4" style="fill:#AED581;" width="10.2" height="5"/>
	<rect x="794" y="169.4" style="fill:#AED581;" width="10" height="5"/>
	<rect x="793.4" y="178" style="fill:#AED581;" width="16.4" height="5"/>
	<rect x="793.7" y="186.8" style="fill:#AED581;" width="35" height="5"/>
	<rect x="793.8" y="194.3" style="fill:#AED581;" width="12.9" height="5"/>
	<rect x="758.2" y="217" style="fill:#AED581;" width="89.4" height="5"/>
	<rect x="744.1" y="226.1" style="fill:#AED581;" width="103.4" height="5"/>
	<rect x="744.1" y="234.1" style="fill:#AED581;" width="85.1" height="5"/>
	<path style="fill:#E91E63;" d="M913,128.9l-30.7,77.5l29.5,34.6H931v-99.4L913,128.9L913,128.9z"/>
	<path style="fill:#EC407A;" d="M863.2,147.5l-7.3,8.3v85.1h68L863.2,147.5L863.2,147.5z"/>
	<path style="fill:#4CAF50;" d="M930.9,47.4l-24,8l-68.5,6l-58.9-7.6l-53.4,11.1l-37.1-12l-67.7,14.7v20.8H931L930.9,47.4
		L930.9,47.4z"/>
</g>
</svg>
