<?xml version="1.0" encoding="iso-8859-1"?>
<!-- Generator: Adobe Illustrator 19.0.0, SVG Export Plug-In . SVG Version: 6.00 Build 0)  -->
<svg version="1.1" id="Layer_1" xmlns="http://www.w3.org/2000/svg" xmlns:xlink="http://www.w3.org/1999/xlink" x="0px" y="0px"
	 viewBox="74 -143.8 298.1 437.8" style="enable-background:new 74 -143.8 298.1 437.8;" xml:space="preserve">
<path style="fill:#4D4D4D;" d="M-121.9,265.5h54.7v85.8c-17.1-1-35,1.7-54.7,0V265.5z"/>
<path style="fill:#333333;" d="M-121.9,265.5h54.7v45.2c-17.1-0.5-35,0.9-54.7,0V265.5z"/>
<rect x="-233.3" y="-75.8" style="fill:#C5E1A5;" width="277.1" height="362.5"/>
<rect x="-204.2" y="-75.8" style="fill:#FFFFFF;stroke:#333333;stroke-miterlimit:10;" width="218.9" height="362.5"/>
<path style="fill:#4D4D4D;" d="M-243.6,300.1H54.5V-81.1h-298.1V300.1z M-228.2,281.4V-65.2h266V282L-228.2,281.4z"/>
<path style="fill:#424242;" d="M-178.4,356.7h167.6c0.9,0,2-0.3,1.6-0.6l-8.2-7.5c-0.3-0.3-3.8-0.6-4.7-0.6h-145
	c-0.9,0-4.4,0.3-4.7,0.6l-8.2,7.5C-180.3,356.4-179.3,356.7-178.4,356.7z"/>
<rect x="-191.1" y="-52.7" style="fill:#FF8F00;" width="112.3" height="8.9"/>
<rect x="-185" y="-18" style="fill:#26C6DA;" width="24.5" height="5.1"/>
<path style="fill:#26C6DA;" d="M-184.9-12.9c-0.2,0.1-1.6-0.9-1.8-1c-0.2-0.1-1.5-1.2-1.5-1.5s1.4-1.4,1.6-1.6
	c0.2-0.1,1.6-1.1,1.7-1c0.2,0.1,0.2,2.3,0.2,2.6C-184.7-15.1-184.8-13-184.9-12.9L-184.9-12.9z"/>
<path style="fill:#26C6DA;" d="M-160.6-12.9c0.2,0.1,1.6-0.9,1.8-1s1.5-1.2,1.5-1.5s-1.4-1.4-1.6-1.6c-0.2-0.1-1.6-1.1-1.7-1
	c-0.2,0.1-0.2,2.3-0.2,2.6S-160.7-13-160.6-12.9L-160.6-12.9z"/>
<rect x="-171.4" y="-8.1" style="fill:#26C6DA;" width="24.5" height="5.1"/>
<path style="fill:#26C6DA;" d="M-171.3-3.1c-0.2,0.1-1.6-0.9-1.8-1s-1.5-1.2-1.5-1.5s1.4-1.4,1.6-1.6c0.2-0.1,1.6-1.1,1.7-1
	c0.2,0.1,0.2,2.3,0.2,2.6S-171.2-3.2-171.3-3.1L-171.3-3.1z"/>
<path style="fill:#26C6DA;" d="M-147-3.1c0.2,0.1,1.6-0.9,1.8-1s1.5-1.2,1.5-1.5s-1.4-1.4-1.6-1.6c-0.2-0.1-1.6-1.1-1.7-1
	c-0.2,0.1-0.2,2.3-0.2,2.6S-147.1-3.2-147-3.1L-147-3.1z"/>
<rect x="-160.9" y="1.2" style="fill:#26C6DA;" width="24.5" height="5.1"/>
<path style="fill:#26C6DA;" d="M-160.8,6.2c-0.2,0.1-1.6-0.9-1.8-1s-1.5-1.2-1.5-1.5s1.4-1.4,1.6-1.6c0.2-0.1,1.6-1.1,1.7-1
	c0.2,0.1,0.2,2.3,0.2,2.6C-160.5,4-160.6,6.1-160.8,6.2L-160.8,6.2z"/>
<path style="fill:#26C6DA;" d="M-136.4,6.2c0.2,0.1,1.6-0.9,1.8-1s1.5-1.2,1.5-1.5s-1.4-1.4-1.6-1.6c-0.2-0.1-1.6-1.1-1.7-1
	c-0.2,0.1-0.2,2.3-0.2,2.6C-136.6,4-136.6,6.1-136.4,6.2L-136.4,6.2z"/>
<rect x="-160.6" y="10.7" style="fill:#26C6DA;" width="24.5" height="5.1"/>
<path style="fill:#26C6DA;" d="M-160.5,15.8c-0.2,0.1-1.6-0.9-1.8-1s-1.5-1.2-1.5-1.5s1.4-1.4,1.6-1.6c0.2-0.1,1.6-1.1,1.7-1
	c0.2,0.1,0.2,2.3,0.2,2.6C-160.3,13.6-160.3,15.7-160.5,15.8L-160.5,15.8z"/>
<path style="fill:#26C6DA;" d="M-136.2,15.8c0.2,0.1,1.6-0.9,1.8-1s1.5-1.2,1.5-1.5s-1.4-1.4-1.6-1.6c-0.2-0.1-1.6-1.1-1.7-1
	c-0.2,0.1-0.2,2.3-0.2,2.6C-136.4,13.6-136.3,15.7-136.2,15.8L-136.2,15.8z"/>
<rect x="-160.4" y="20.1" style="fill:#26C6DA;" width="24.5" height="5.1"/>
<path style="fill:#26C6DA;" d="M-160.3,25.1c-0.2,0.1-1.6-0.9-1.8-1s-1.5-1.2-1.5-1.5s1.4-1.4,1.6-1.6c0.2-0.1,1.6-1.1,1.7-1
	c0.2,0.1,0.2,2.3,0.2,2.6C-160,22.9-160.1,25-160.3,25.1L-160.3,25.1z"/>
<path style="fill:#26C6DA;" d="M-135.9,25.1c0.2,0.1,1.6-0.9,1.8-1s1.5-1.2,1.5-1.5s-1.4-1.4-1.6-1.6c-0.2-0.1-1.6-1.1-1.7-1
	c-0.2,0.1-0.2,2.3-0.2,2.6C-136.1,22.9-136.1,25-135.9,25.1L-135.9,25.1z"/>
<rect x="-160.4" y="29.6" style="fill:#26C6DA;" width="24.5" height="5.1"/>
<path style="fill:#26C6DA;" d="M-160.3,34.7c-0.2,0.1-1.6-0.9-1.8-1s-1.5-1.2-1.5-1.5s1.4-1.4,1.6-1.6c0.2-0.1,1.6-1.1,1.7-1
	c0.2,0.1,0.2,2.3,0.2,2.6C-160,32.4-160.1,34.6-160.3,34.7L-160.3,34.7z"/>
<path style="fill:#26C6DA;" d="M-135.9,34.7c0.2,0.1,1.6-0.9,1.8-1s1.5-1.2,1.5-1.5s-1.4-1.4-1.6-1.6c-0.2-0.1-1.6-1.1-1.7-1
	c-0.2,0.1-0.2,2.3-0.2,2.6C-136.1,32.4-136.1,34.6-135.9,34.7L-135.9,34.7z"/>
<rect x="-160.4" y="63.3" style="fill:#26C6DA;" width="24.5" height="5.1"/>
<path style="fill:#26C6DA;" d="M-160.3,68.4c-0.2,0.1-1.6-0.9-1.8-1s-1.5-1.2-1.5-1.5s1.4-1.4,1.6-1.6c0.2-0.1,1.6-1.1,1.7-1
	c0.2,0.1,0.2,2.3,0.2,2.6C-160,66.2-160.1,68.3-160.3,68.4L-160.3,68.4z"/>
<path style="fill:#26C6DA;" d="M-135.9,68.4c0.2,0.1,1.6-0.9,1.8-1s1.5-1.2,1.5-1.5s-1.4-1.4-1.6-1.6c-0.2-0.1-1.6-1.1-1.7-1
	c-0.2,0.1-0.2,2.3-0.2,2.6C-136.1,66.2-136.1,68.3-135.9,68.4L-135.9,68.4z"/>
<rect x="-159.3" y="72.9" style="fill:#26C6DA;" width="24.5" height="5.1"/>
<path style="fill:#26C6DA;" d="M-159.2,78c-0.2,0.1-1.6-0.9-1.8-1s-1.5-1.2-1.5-1.5s1.4-1.4,1.6-1.6c0.2-0.1,1.6-1.1,1.7-1
	c0.2,0.1,0.2,2.3,0.2,2.6C-159,75.7-159.1,77.8-159.2,78L-159.2,78z"/>
<path style="fill:#26C6DA;" d="M-134.9,78c0.2,0.1,1.6-0.9,1.8-1s1.5-1.2,1.5-1.5s-1.4-1.4-1.6-1.6c-0.2-0.1-1.6-1.1-1.7-1
	c-0.2,0.1-0.2,2.3-0.2,2.6C-135.1,75.7-135.1,77.8-134.9,78L-134.9,78z"/>
<rect x="-171.4" y="83.5" style="fill:#26C6DA;" width="24.5" height="5.1"/>
<path style="fill:#26C6DA;" d="M-171.3,88.5c-0.2,0.1-1.6-0.9-1.8-1s-1.5-1.2-1.5-1.5s1.4-1.4,1.6-1.6c0.2-0.1,1.6-1.1,1.7-1
	c0.2,0.1,0.2,2.3,0.2,2.6S-171.2,88.4-171.3,88.5L-171.3,88.5z"/>
<path style="fill:#26C6DA;" d="M-147,88.5c0.2,0.1,1.6-0.9,1.8-1s1.5-1.2,1.5-1.5s-1.4-1.4-1.6-1.6c-0.2-0.1-1.6-1.1-1.7-1
	c-0.2,0.1-0.2,2.3-0.2,2.6S-147.1,88.4-147,88.5L-147,88.5z"/>
<rect x="-171.4" y="96.1" style="fill:#26C6DA;" width="24.5" height="5.1"/>
<path style="fill:#26C6DA;" d="M-171.3,101.1c-0.2,0.1-1.6-0.9-1.8-1s-1.5-1.2-1.5-1.5s1.4-1.4,1.6-1.6c0.2-0.1,1.6-1.1,1.7-1
	c0.2,0.1,0.2,2.3,0.2,2.6S-171.2,101-171.3,101.1L-171.3,101.1z"/>
<path style="fill:#26C6DA;" d="M-147,101.1c0.2,0.1,1.6-0.9,1.8-1s1.5-1.2,1.5-1.5s-1.4-1.4-1.6-1.6c-0.2-0.1-1.6-1.1-1.7-1
	c-0.2,0.1-0.2,2.3-0.2,2.6S-147.1,101-147,101.1L-147,101.1z"/>
<rect x="-126.2" y="29.6" style="fill:#CCCCCC;stroke:#333333;stroke-miterlimit:10;" width="117.3" height="5.1"/>
<path style="fill:#CCCCCC;stroke:#333333;stroke-miterlimit:10;" d="M-126.1,34.7c-0.2,0.1-1.6-0.9-1.8-1s-1.5-1.2-1.5-1.5
	s1.4-1.4,1.6-1.6c0.2-0.1,1.6-1.1,1.7-1c0.2,0.1,0.2,2.3,0.2,2.6C-125.9,32.4-125.9,34.6-126.1,34.7L-126.1,34.7z"/>
<path style="fill:#CCCCCC;stroke:#333333;stroke-miterlimit:10;" d="M-9.1,34.7c0.2,0.1,1.6-0.9,1.8-1c0.2-0.1,1.5-1.2,1.5-1.5
	s-1.4-1.4-1.6-1.6c-0.2-0.1-1.6-1.1-1.7-1c-0.2,0.1-0.2,2.3-0.2,2.6C-9.3,32.4-9.3,34.6-9.1,34.7L-9.1,34.7z"/>
<rect x="-159.8" y="38.7" style="fill:#CCCCCC;stroke:#333333;stroke-miterlimit:10;" width="150.7" height="5.1"/>
<path style="fill:#CCCCCC;stroke:#333333;stroke-miterlimit:10;" d="M-159.6,43.7c-0.2,0.1-2.1-0.9-2.3-1s-2-1.2-1.9-1.5
	c0-0.3,1.8-1.4,2-1.6c0.2-0.1,2-1.1,2.2-1s0.3,2.3,0.3,2.6C-159.4,41.5-159.4,43.6-159.6,43.7L-159.6,43.7z"/>
<path style="fill:#CCCCCC;stroke:#333333;stroke-miterlimit:10;" d="M-9.5,43.7c0.2,0.1,2.1-0.9,2.3-1s2-1.2,1.9-1.5
	c0-0.3-1.8-1.4-2-1.6c-0.2-0.1-2-1.1-2.2-1s-0.3,2.3-0.3,2.6S-9.8,43.6-9.5,43.7L-9.5,43.7z"/>
<rect x="-159.8" y="47.2" style="fill:#CCCCCC;stroke:#333333;stroke-miterlimit:10;" width="150.7" height="5.1"/>
<path style="fill:#CCCCCC;stroke:#333333;stroke-miterlimit:10;" d="M-159.6,52.3c-0.2,0.1-2.1-0.9-2.3-1s-2-1.2-1.9-1.5
	c0-0.3,1.8-1.4,2-1.6c0.2-0.1,2-1.1,2.2-1s0.3,2.3,0.3,2.6C-159.4,50.1-159.4,52.2-159.6,52.3L-159.6,52.3z"/>
<path style="fill:#CCCCCC;stroke:#333333;stroke-miterlimit:10;" d="M-9.5,52.3c0.2,0.1,2.1-0.9,2.3-1s2-1.2,1.9-1.5
	c0-0.3-1.8-1.4-2-1.6c-0.2-0.1-2-1.1-2.2-1s-0.3,2.3-0.3,2.6S-9.8,52.2-9.5,52.3L-9.5,52.3z"/>
<rect x="-160.2" y="55" style="fill:#CCCCCC;stroke:#333333;stroke-miterlimit:10;" width="133.5" height="5.1"/>
<path style="fill:#CCCCCC;stroke:#333333;stroke-miterlimit:10;" d="M-160.1,60.1c-0.2,0.1-1.9-0.9-2.1-1s-1.7-1.2-1.7-1.5
	s1.6-1.4,1.8-1.6c0.2-0.1,1.8-1.1,2-1s0.3,2.3,0.3,2.6C-159.9,57.9-159.9,60-160.1,60.1L-160.1,60.1z"/>
<path style="fill:#CCCCCC;stroke:#333333;stroke-miterlimit:10;" d="M-27.2,60.1c0.2,0.1,1.9-0.9,2.1-1s1.7-1.2,1.7-1.5
	s-1.6-1.4-1.8-1.6c-0.2-0.1-1.8-1.1-2-1s-0.3,2.3-0.3,2.6C-27.4,57.9-27.4,60-27.2,60.1L-27.2,60.1z"/>
<rect x="-125.6" y="10.5" style="fill:#FF7043;" width="24.5" height="5.1"/>
<path style="fill:#FF7043;" d="M-125.5,15.5c-0.2,0.1-1.6-0.9-1.8-1s-1.5-1.2-1.5-1.5s1.4-1.4,1.6-1.6c0.2-0.1,1.6-1.1,1.7-1
	c0.2,0.1,0.2,2.3,0.2,2.6S-125.4,15.4-125.5,15.5L-125.5,15.5z"/>
<path style="fill:#FF7043;" d="M-101.2,15.5c0.2,0.1,1.6-0.9,1.8-1s1.5-1.2,1.5-1.5s-1.4-1.4-1.6-1.6c-0.2-0.1-1.6-1.1-1.7-1
	c-0.2,0.1-0.2,2.3-0.2,2.6S-101.3,15.4-101.2,15.5L-101.2,15.5z"/>
<rect x="-64.5" y="10.5" style="fill:#FF7043;" width="24.5" height="5.1"/>
<path style="fill:#FF7043;" d="M-64.4,15.5c-0.2,0.1-1.6-0.9-1.8-1s-1.5-1.2-1.5-1.5s1.4-1.4,1.6-1.6c0.2-0.1,1.6-1.1,1.7-1
	c0.2,0.1,0.2,2.3,0.2,2.6C-64.1,13.3-64.2,15.4-64.4,15.5L-64.4,15.5z"/>
<path style="fill:#FF7043;" d="M-40,15.5c0.2,0.1,1.6-0.9,1.8-1c0.2-0.1,1.5-1.2,1.5-1.5s-1.4-1.4-1.6-1.6c-0.2-0.1-1.6-1.1-1.7-1
	c-0.2,0.1-0.2,2.3-0.2,2.6C-40.2,13.3-40.2,15.4-40,15.5L-40,15.5z"/>
<rect x="-31.7" y="10.5" style="fill:#26C6DA;" width="24.5" height="5.1"/>
<path style="fill:#26C6DA;" d="M-31.6,15.5c-0.2,0.1-1.6-0.9-1.8-1c-0.2-0.1-1.5-1.2-1.5-1.5s1.4-1.4,1.6-1.6c0.2-0.1,1.6-1.1,1.7-1
	c0.2,0.1,0.2,2.3,0.2,2.6C-31.4,13.3-31.5,15.4-31.6,15.5L-31.6,15.5z"/>
<path style="fill:#26C6DA;" d="M-7.3,15.5c0.2,0.1,1.6-0.9,1.8-1C-5.3,14.4-4,13.3-4,13s-1.4-1.4-1.6-1.6c-0.2-0.1-1.6-1.1-1.7-1
	c-0.2,0.1-0.2,2.3-0.2,2.6C-7.5,13.3-7.5,15.4-7.3,15.5L-7.3,15.5z"/>
<rect x="-92.7" y="10.5" style="fill:#CCCCCC;stroke:#333333;stroke-miterlimit:10;" width="20.5" height="5.1"/>
<path style="fill:#CCCCCC;stroke:#333333;stroke-miterlimit:10;" d="M-92.6,15.5c-0.1,0.1-1.4-0.9-1.5-1s-1.3-1.2-1.3-1.5
	s1.2-1.4,1.3-1.6c0.1-0.1,1.3-1.1,1.4-1c0.1,0.1,0.2,2.3,0.2,2.6C-92.4,13.3-92.4,15.4-92.6,15.5L-92.6,15.5z"/>
<path style="fill:#CCCCCC;stroke:#333333;stroke-miterlimit:10;" d="M-72.2,15.5c0.1,0.1,1.4-0.9,1.5-1s1.3-1.2,1.3-1.5
	s-1.2-1.4-1.3-1.6c-0.1-0.1-1.3-1.1-1.4-1c-0.1,0.1-0.2,2.3-0.2,2.6C-72.4,13.3-72.3,15.4-72.2,15.5L-72.2,15.5z"/>
<rect x="-136.9" y="83.5" style="fill:#FF7043;" width="40.2" height="5.1"/>
<path style="fill:#FF7043;" d="M-136.8,88.5c-0.2,0.1-1.6-0.9-1.8-1s-1.5-1.2-1.5-1.5s1.4-1.4,1.6-1.6c0.2-0.1,1.6-1.1,1.7-1
	c0.2,0.1,0.2,2.3,0.2,2.6S-136.7,88.4-136.8,88.5L-136.8,88.5z"/>
<path style="fill:#FF7043;" d="M-96.9,88.5c0.2,0.1,1.6-0.9,1.8-1s1.5-1.2,1.5-1.5s-1.4-1.4-1.6-1.6c-0.2-0.1-1.6-1.1-1.7-1
	c-0.2,0.1-0.2,2.3-0.2,2.6C-97.1,86.3-97.1,88.4-96.9,88.5L-96.9,88.5z"/>
<rect x="-136.6" y="95.6" style="fill:#FF7043;" width="40.2" height="5.1"/>
<path style="fill:#FF7043;" d="M-136.5,100.6c-0.2,0.1-1.6-0.9-1.8-1s-1.5-1.2-1.5-1.5s1.4-1.4,1.6-1.6c0.2-0.1,1.6-1.1,1.7-1
	c0.2,0.1,0.2,2.3,0.2,2.6S-136.3,100.5-136.5,100.6L-136.5,100.6z"/>
<path style="fill:#FF7043;" d="M-96.5,100.6c0.2,0.1,1.6-0.9,1.8-1s1.5-1.2,1.5-1.5s-1.4-1.4-1.6-1.6c-0.2-0.1-1.6-1.1-1.7-1
	c-0.2,0.1-0.2,2.3-0.2,2.6S-96.7,100.5-96.5,100.6L-96.5,100.6z"/>
<rect x="-159.3" y="107.4" style="fill:#26C6DA;" width="24.5" height="5.1"/>
<path style="fill:#26C6DA;" d="M-159.2,112.5c-0.2,0.1-1.6-0.9-1.8-1s-1.5-1.2-1.5-1.5s1.4-1.4,1.6-1.6c0.2-0.1,1.6-1.1,1.7-1
	c0.2,0.1,0.2,2.3,0.2,2.6C-159,110.2-159.1,112.3-159.2,112.5L-159.2,112.5z"/>
<path style="fill:#26C6DA;" d="M-134.9,112.5c0.2,0.1,1.6-0.9,1.8-1s1.5-1.2,1.5-1.5s-1.4-1.4-1.6-1.6c-0.2-0.1-1.6-1.1-1.7-1
	c-0.2,0.1-0.2,2.3-0.2,2.6C-135.1,110.2-135.1,112.3-134.9,112.5L-134.9,112.5z"/>
<rect x="-124.5" y="106.9" style="fill:#FF7043;" width="64.3" height="5.1"/>
<path style="fill:#FF7043;" d="M-124.4,111.9c-0.2,0.1-1.6-0.9-1.8-1s-1.5-1.2-1.5-1.5s1.4-1.4,1.6-1.6c0.2-0.1,1.6-1.1,1.7-1
	c0.2,0.1,0.2,2.3,0.2,2.6S-124.2,111.8-124.4,111.9L-124.4,111.9z"/>
<path style="fill:#FF7043;" d="M-60.8,111.9c0.2,0.1,1.6-0.9,1.8-1s1.5-1.2,1.5-1.5s-1.4-1.4-1.6-1.6c-0.2-0.1-1.6-1.1-1.7-1
	c-0.2,0.1-0.2,2.3-0.2,2.6S-60.9,111.8-60.8,111.9L-60.8,111.9z"/>
<rect x="-159.3" y="117" style="fill:#26C6DA;" width="24.5" height="5.1"/>
<path style="fill:#26C6DA;" d="M-159.2,122c-0.2,0.1-1.6-0.9-1.8-1s-1.5-1.2-1.5-1.5s1.4-1.4,1.6-1.6c0.2-0.1,1.6-1.1,1.7-1
	c0.2,0.1,0.2,2.3,0.2,2.6S-159.1,121.9-159.2,122L-159.2,122z"/>
<path style="fill:#26C6DA;" d="M-134.9,122c0.2,0.1,1.6-0.9,1.8-1s1.5-1.2,1.5-1.5s-1.4-1.4-1.6-1.6c-0.2-0.1-1.6-1.1-1.7-1
	c-0.2,0.1-0.2,2.3-0.2,2.6C-135.1,119.8-135.1,121.9-134.9,122L-134.9,122z"/>
<rect x="-191.1" y="-39.9" style="fill:#FF8F00;" width="92" height="2.8"/>
<rect x="-204.2" y="-30.5" style="fill:#2196F3;" width="218.9" height="1.9"/>
<rect x="-87.2" y="83.2" style="fill:#CCCCCC;stroke:#333333;stroke-miterlimit:10;" width="64.3" height="5.1"/>
<path style="fill:#CCCCCC;stroke:#333333;stroke-miterlimit:10;" d="M-87.1,88.3c-0.2,0.1-1.6-0.9-1.8-1s-1.5-1.2-1.5-1.5
	s1.4-1.4,1.6-1.6c0.2-0.1,1.6-1.1,1.7-1c0.2,0.1,0.2,2.3,0.2,2.6S-87,88.2-87.1,88.3L-87.1,88.3z"/>
<path style="fill:#CCCCCC;stroke:#333333;stroke-miterlimit:10;" d="M-23.5,88.3c0.2,0.1,1.6-0.9,1.8-1s1.5-1.2,1.5-1.5
	s-1.4-1.4-1.6-1.6c-0.2-0.1-1.6-1.1-1.7-1c-0.2,0.1-0.2,2.3-0.2,2.6S-23.7,88.2-23.5,88.3L-23.5,88.3z"/>
<rect x="-86.2" y="94.8" style="fill:#CCCCCC;stroke:#333333;stroke-miterlimit:10;" width="64.3" height="5.1"/>
<path style="fill:#CCCCCC;stroke:#333333;stroke-miterlimit:10;" d="M-86.1,99.9c-0.2,0.1-1.6-0.9-1.8-1s-1.5-1.2-1.5-1.5
	s1.4-1.4,1.6-1.6c0.2-0.1,1.6-1.1,1.7-1c0.2,0.1,0.2,2.3,0.2,2.6C-85.9,97.6-86,99.7-86.1,99.9L-86.1,99.9z"/>
<path style="fill:#CCCCCC;stroke:#333333;stroke-miterlimit:10;" d="M-22.5,99.9c0.2,0.1,1.6-0.9,1.8-1s1.5-1.2,1.5-1.5
	s-1.4-1.4-1.6-1.6c-0.2-0.1-1.6-1.1-1.7-1c-0.2,0.1-0.2,2.3-0.2,2.6C-22.7,97.6-22.7,99.7-22.5,99.9L-22.5,99.9z"/>
<rect x="-50.6" y="107.4" style="fill:#CCCCCC;stroke:#333333;stroke-miterlimit:10;" width="24.5" height="5.1"/>
<path style="fill:#CCCCCC;stroke:#333333;stroke-miterlimit:10;" d="M-50.5,112.5c-0.2,0.1-1.6-0.9-1.8-1s-1.5-1.2-1.5-1.5
	s1.4-1.4,1.6-1.6c0.2-0.1,1.6-1.1,1.7-1c0.2,0.1,0.2,2.3,0.2,2.6C-50.3,110.2-50.4,112.3-50.5,112.5L-50.5,112.5z"/>
<path style="fill:#CCCCCC;stroke:#333333;stroke-miterlimit:10;" d="M-26.2,112.5c0.2,0.1,1.6-0.9,1.8-1s1.5-1.2,1.5-1.5
	s-1.4-1.4-1.6-1.6c-0.2-0.1-1.6-1.1-1.7-1c-0.2,0.1-0.2,2.3-0.2,2.6C-26.4,110.2-26.3,112.3-26.2,112.5L-26.2,112.5z"/>
<rect x="-123.8" y="117.2" style="fill:#CCCCCC;stroke:#333333;stroke-miterlimit:10;" width="114" height="5.1"/>
<path style="fill:#CCCCCC;stroke:#333333;stroke-miterlimit:10;" d="M-123.7,122.3c-0.2,0.1-1.6-0.9-1.8-1s-1.5-1.2-1.5-1.5
	s1.4-1.4,1.5-1.6c0.2-0.1,1.5-1.1,1.7-1s0.2,2.3,0.2,2.6C-123.5,120-123.5,122.2-123.7,122.3L-123.7,122.3z"/>
<path style="fill:#CCCCCC;stroke:#333333;stroke-miterlimit:10;" d="M-10,122.3c0.2,0.1,1.6-0.9,1.8-1s1.5-1.2,1.5-1.5
	s-1.4-1.4-1.5-1.6c-0.2-0.1-1.5-1.1-1.7-1s-0.2,2.3-0.2,2.6C-10.2,120-10.2,122.2-10,122.3L-10,122.3z"/>
<rect x="-158.3" y="128" style="fill:#26C6DA;" width="24.5" height="5.1"/>
<path style="fill:#26C6DA;" d="M-158.2,133c-0.2,0.1-1.6-0.9-1.8-1s-1.5-1.2-1.5-1.5s1.4-1.4,1.6-1.6c0.2-0.1,1.6-1.1,1.7-1
	c0.2,0.1,0.2,2.3,0.2,2.6C-157.9,130.8-158,132.9-158.2,133L-158.2,133z"/>
<path style="fill:#26C6DA;" d="M-133.8,133c0.2,0.1,1.6-0.9,1.8-1s1.5-1.2,1.5-1.5s-1.4-1.4-1.6-1.6c-0.2-0.1-1.6-1.1-1.7-1
	c-0.2,0.1-0.2,2.3-0.2,2.6S-134,132.9-133.8,133L-133.8,133z"/>
<rect x="-158.3" y="140.6" style="fill:#26C6DA;" width="24.5" height="5.1"/>
<path style="fill:#26C6DA;" d="M-158.2,145.6c-0.2,0.1-1.6-0.9-1.8-1s-1.5-1.2-1.5-1.5s1.4-1.4,1.6-1.6c0.2-0.1,1.6-1.1,1.7-1
	c0.2,0.1,0.2,2.3,0.2,2.6C-157.9,143.4-158,145.5-158.2,145.6L-158.2,145.6z"/>
<path style="fill:#26C6DA;" d="M-133.8,145.6c0.2,0.1,1.6-0.9,1.8-1s1.5-1.2,1.5-1.5s-1.4-1.4-1.6-1.6c-0.2-0.1-1.6-1.1-1.7-1
	c-0.2,0.1-0.2,2.3-0.2,2.6S-134,145.5-133.8,145.6L-133.8,145.6z"/>
<rect x="-123.8" y="128" style="fill:#FF7043;" width="40.2" height="5.1"/>
<path style="fill:#FF7043;" d="M-123.7,133c-0.2,0.1-1.6-0.9-1.8-1s-1.5-1.2-1.5-1.5s1.4-1.4,1.6-1.6c0.2-0.1,1.6-1.1,1.7-1
	c0.2,0.1,0.2,2.3,0.2,2.6S-123.5,132.9-123.7,133L-123.7,133z"/>
<path style="fill:#FF7043;" d="M-83.7,133c0.2,0.1,1.6-0.9,1.8-1s1.5-1.2,1.5-1.5s-1.4-1.4-1.6-1.6c-0.2-0.1-1.6-1.1-1.7-1
	c-0.2,0.1-0.2,2.3-0.2,2.6S-83.9,132.9-83.7,133L-83.7,133z"/>
<rect x="-123.4" y="140.1" style="fill:#FF7043;" width="40.2" height="5.1"/>
<path style="fill:#FF7043;" d="M-123.3,145.1c-0.2,0.1-1.6-0.9-1.8-1s-1.5-1.2-1.5-1.5s1.4-1.4,1.6-1.6c0.2-0.1,1.6-1.1,1.7-1
	c0.2,0.1,0.2,2.3,0.2,2.6S-123.1,145-123.3,145.1L-123.3,145.1z"/>
<path style="fill:#FF7043;" d="M-83.3,145.1c0.2,0.1,1.6-0.9,1.8-1s1.5-1.2,1.5-1.5s-1.4-1.4-1.6-1.6c-0.2-0.1-1.6-1.1-1.7-1
	c-0.2,0.1-0.2,2.3-0.2,2.6C-83.6,142.9-83.5,145-83.3,145.1L-83.3,145.1z"/>
<rect x="-74.1" y="127.7" style="fill:#CCCCCC;stroke:#333333;stroke-miterlimit:10;" width="64.3" height="5.1"/>
<path style="fill:#CCCCCC;stroke:#333333;stroke-miterlimit:10;" d="M-74,132.8c-0.2,0.1-1.6-0.9-1.8-1s-1.5-1.2-1.5-1.5
	s1.4-1.4,1.6-1.6c0.2-0.1,1.6-1.1,1.7-1c0.2,0.1,0.2,2.3,0.2,2.6C-73.7,130.6-73.8,132.7-74,132.8L-74,132.8z"/>
<path style="fill:#CCCCCC;stroke:#333333;stroke-miterlimit:10;" d="M-10.3,132.8c0.2,0.1,1.6-0.9,1.8-1s1.5-1.2,1.5-1.5
	s-1.4-1.4-1.6-1.6c-0.2-0.1-1.6-1.1-1.7-1c-0.2,0.1-0.2,2.3-0.2,2.6C-10.6,130.6-10.5,132.7-10.3,132.8L-10.3,132.8z"/>
<rect x="-73.1" y="139.3" style="fill:#CCCCCC;stroke:#333333;stroke-miterlimit:10;" width="64.3" height="5.1"/>
<path style="fill:#CCCCCC;stroke:#333333;stroke-miterlimit:10;" d="M-73,144.4c-0.2,0.1-1.6-0.9-1.8-1s-1.5-1.2-1.5-1.5
	s1.4-1.4,1.6-1.6c0.2-0.1,1.6-1.1,1.7-1c0.2,0.1,0.2,2.3,0.2,2.6C-72.7,142.1-72.8,144.2-73,144.4L-73,144.4z"/>
<path style="fill:#CCCCCC;stroke:#333333;stroke-miterlimit:10;" d="M-9.3,144.4c0.2,0.1,1.6-0.9,1.8-1s1.5-1.2,1.5-1.5
	s-1.4-1.4-1.6-1.6c-0.2-0.1-1.6-1.1-1.7-1c-0.2,0.1-0.2,2.3-0.2,2.6C-9.5,142.1-9.5,144.2-9.3,144.4L-9.3,144.4z"/>
<rect x="-158.3" y="150" style="fill:#26C6DA;" width="24.5" height="5.1"/>
<path style="fill:#26C6DA;" d="M-158.2,155.1c-0.2,0.1-1.6-0.9-1.8-1s-1.5-1.2-1.5-1.5s1.4-1.4,1.6-1.6c0.2-0.1,1.6-1.1,1.7-1
	c0.2,0.1,0.2,2.3,0.2,2.6C-157.9,152.9-158,155-158.2,155.1L-158.2,155.1z"/>
<path style="fill:#26C6DA;" d="M-133.8,155.1c0.2,0.1,1.6-0.9,1.8-1s1.5-1.2,1.5-1.5s-1.4-1.4-1.6-1.6c-0.2-0.1-1.6-1.1-1.7-1
	c-0.2,0.1-0.2,2.3-0.2,2.6S-134,155-133.8,155.1L-133.8,155.1z"/>
<rect x="-158.3" y="162.6" style="fill:#26C6DA;" width="24.5" height="5.1"/>
<path style="fill:#26C6DA;" d="M-158.2,167.7c-0.2,0.1-1.6-0.9-1.8-1s-1.5-1.2-1.5-1.5s1.4-1.4,1.6-1.6c0.2-0.1,1.6-1.1,1.7-1
	c0.2,0.1,0.2,2.3,0.2,2.6C-157.9,165.5-158,167.6-158.2,167.7L-158.2,167.7z"/>
<path style="fill:#26C6DA;" d="M-133.8,167.7c0.2,0.1,1.6-0.9,1.8-1s1.5-1.2,1.5-1.5s-1.4-1.4-1.6-1.6c-0.2-0.1-1.6-1.1-1.7-1
	c-0.2,0.1-0.2,2.3-0.2,2.6S-134,167.6-133.8,167.7L-133.8,167.7z"/>
<rect x="-123.8" y="150" style="fill:#FF7043;" width="40.2" height="5.1"/>
<path style="fill:#FF7043;" d="M-123.7,155.1c-0.2,0.1-1.6-0.9-1.8-1s-1.5-1.2-1.5-1.5s1.4-1.4,1.6-1.6c0.2-0.1,1.6-1.1,1.7-1
	c0.2,0.1,0.2,2.3,0.2,2.6S-123.5,155-123.7,155.1L-123.7,155.1z"/>
<path style="fill:#FF7043;" d="M-83.7,155.1c0.2,0.1,1.6-0.9,1.8-1s1.5-1.2,1.5-1.5s-1.4-1.4-1.6-1.6c-0.2-0.1-1.6-1.1-1.7-1
	c-0.2,0.1-0.2,2.3-0.2,2.6S-83.9,155-83.7,155.1L-83.7,155.1z"/>
<rect x="-123.4" y="162.1" style="fill:#FF7043;" width="40.2" height="5.1"/>
<path style="fill:#FF7043;" d="M-123.3,167.2c-0.2,0.1-1.6-0.9-1.8-1s-1.5-1.2-1.5-1.5s1.4-1.4,1.6-1.6c0.2-0.1,1.6-1.1,1.7-1
	c0.2,0.1,0.2,2.3,0.2,2.6C-123.1,165-123.1,167.1-123.3,167.2L-123.3,167.2z"/>
<path style="fill:#FF7043;" d="M-83.3,167.2c0.2,0.1,1.6-0.9,1.8-1s1.5-1.2,1.5-1.5s-1.4-1.4-1.6-1.6c-0.2-0.1-1.6-1.1-1.7-1
	c-0.2,0.1-0.2,2.3-0.2,2.6C-83.6,165-83.5,167.1-83.3,167.2L-83.3,167.2z"/>
<rect x="-74.1" y="149.8" style="fill:#CCCCCC;stroke:#333333;stroke-miterlimit:10;" width="64.3" height="5.1"/>
<path style="fill:#CCCCCC;stroke:#333333;stroke-miterlimit:10;" d="M-74,154.9c-0.2,0.1-1.6-0.9-1.8-1s-1.5-1.2-1.5-1.5
	s1.4-1.4,1.6-1.6c0.2-0.1,1.6-1.1,1.7-1c0.2,0.1,0.2,2.3,0.2,2.6C-73.7,152.6-73.8,154.7-74,154.9L-74,154.9z"/>
<path style="fill:#CCCCCC;stroke:#333333;stroke-miterlimit:10;" d="M-10.3,154.9c0.2,0.1,1.6-0.9,1.8-1s1.5-1.2,1.5-1.5
	s-1.4-1.4-1.6-1.6c-0.2-0.1-1.6-1.1-1.7-1c-0.2,0.1-0.2,2.3-0.2,2.6C-10.6,152.6-10.5,154.7-10.3,154.9L-10.3,154.9z"/>
<rect x="-73.1" y="161.4" style="fill:#CCCCCC;stroke:#333333;stroke-miterlimit:10;" width="64.3" height="5.1"/>
<path style="fill:#CCCCCC;stroke:#333333;stroke-miterlimit:10;" d="M-73,166.4c-0.2,0.1-1.6-0.9-1.8-1s-1.5-1.2-1.5-1.5
	s1.4-1.4,1.6-1.6c0.2-0.1,1.6-1.1,1.7-1c0.2,0.1,0.2,2.3,0.2,2.6C-72.7,164.2-72.8,166.3-73,166.4L-73,166.4z"/>
<path style="fill:#CCCCCC;stroke:#333333;stroke-miterlimit:10;" d="M-9.3,166.4c0.2,0.1,1.6-0.9,1.8-1s1.5-1.2,1.5-1.5
	s-1.4-1.4-1.6-1.6c-0.2-0.1-1.6-1.1-1.7-1c-0.2,0.1-0.2,2.3-0.2,2.6S-9.5,166.3-9.3,166.4L-9.3,166.4z"/>
<rect x="-171.4" y="176.7" style="fill:#26C6DA;" width="24.5" height="5.1"/>
<path style="fill:#26C6DA;" d="M-171.3,181.8c-0.2,0.1-1.6-0.9-1.8-1s-1.5-1.2-1.5-1.5s1.4-1.4,1.6-1.6c0.2-0.1,1.6-1.1,1.7-1
	c0.2,0.1,0.2,2.3,0.2,2.6S-171.2,181.7-171.3,181.8L-171.3,181.8z"/>
<path style="fill:#26C6DA;" d="M-147,181.8c0.2,0.1,1.6-0.9,1.8-1s1.5-1.2,1.5-1.5s-1.4-1.4-1.6-1.6c-0.2-0.1-1.6-1.1-1.7-1
	c-0.2,0.1-0.2,2.3-0.2,2.6S-147.1,181.7-147,181.8L-147,181.8z"/>
<rect x="-171.4" y="189.3" style="fill:#26C6DA;" width="24.5" height="5.1"/>
<path style="fill:#26C6DA;" d="M-171.3,194.4c-0.2,0.1-1.6-0.9-1.8-1s-1.5-1.2-1.5-1.5s1.4-1.4,1.6-1.6c0.2-0.1,1.6-1.1,1.7-1
	c0.2,0.1,0.2,2.3,0.2,2.6S-171.2,194.3-171.3,194.4L-171.3,194.4z"/>
<path style="fill:#26C6DA;" d="M-147,194.4c0.2,0.1,1.6-0.9,1.8-1s1.5-1.2,1.5-1.5s-1.4-1.4-1.6-1.6c-0.2-0.1-1.6-1.1-1.7-1
	c-0.2,0.1-0.2,2.3-0.2,2.6S-147.1,194.3-147,194.4L-147,194.4z"/>
<rect x="-136.9" y="176.7" style="fill:#FF7043;" width="40.2" height="5.1"/>
<path style="fill:#FF7043;" d="M-136.8,181.8c-0.2,0.1-1.6-0.9-1.8-1s-1.5-1.2-1.5-1.5s1.4-1.4,1.6-1.6c0.2-0.1,1.6-1.1,1.7-1
	c0.2,0.1,0.2,2.3,0.2,2.6S-136.7,181.7-136.8,181.8L-136.8,181.8z"/>
<path style="fill:#FF7043;" d="M-96.9,181.8c0.2,0.1,1.6-0.9,1.8-1s1.5-1.2,1.5-1.5s-1.4-1.4-1.6-1.6c-0.2-0.1-1.6-1.1-1.7-1
	c-0.2,0.1-0.2,2.3-0.2,2.6S-97.1,181.7-96.9,181.8L-96.9,181.8z"/>
<rect x="-136.6" y="188.8" style="fill:#FF7043;" width="40.2" height="5.1"/>
<path style="fill:#FF7043;" d="M-136.5,193.9c-0.2,0.1-1.6-0.9-1.8-1s-1.5-1.2-1.5-1.5s1.4-1.4,1.6-1.6c0.2-0.1,1.6-1.1,1.7-1
	c0.2,0.1,0.2,2.3,0.2,2.6C-136.3,191.6-136.3,193.8-136.5,193.9L-136.5,193.9z"/>
<path style="fill:#FF7043;" d="M-96.5,193.9c0.2,0.1,1.6-0.9,1.8-1s1.5-1.2,1.5-1.5s-1.4-1.4-1.6-1.6c-0.2-0.1-1.6-1.1-1.7-1
	c-0.2,0.1-0.2,2.3-0.2,2.6C-96.7,191.6-96.7,193.8-96.5,193.9L-96.5,193.9z"/>
<rect x="-87.2" y="176.5" style="fill:#CCCCCC;stroke:#333333;stroke-miterlimit:10;" width="64.3" height="5.1"/>
<path style="fill:#CCCCCC;stroke:#333333;stroke-miterlimit:10;" d="M-87.1,181.6c-0.2,0.1-1.6-0.9-1.8-1s-1.5-1.2-1.5-1.5
	s1.4-1.4,1.6-1.6c0.2-0.1,1.6-1.1,1.7-1c0.2,0.1,0.2,2.3,0.2,2.6C-86.9,179.3-87,181.4-87.1,181.6L-87.1,181.6z"/>
<path style="fill:#CCCCCC;stroke:#333333;stroke-miterlimit:10;" d="M-23.5,181.6c0.2,0.1,1.6-0.9,1.8-1s1.5-1.2,1.5-1.5
	s-1.4-1.4-1.6-1.6c-0.2-0.1-1.6-1.1-1.7-1c-0.2,0.1-0.2,2.3-0.2,2.6C-23.7,179.3-23.7,181.4-23.5,181.6L-23.5,181.6z"/>
<rect x="-86.2" y="188.1" style="fill:#CCCCCC;stroke:#333333;stroke-miterlimit:10;" width="64.3" height="5.1"/>
<path style="fill:#CCCCCC;stroke:#333333;stroke-miterlimit:10;" d="M-86.1,193.1c-0.2,0.1-1.6-0.9-1.8-1s-1.5-1.2-1.5-1.5
	s1.4-1.4,1.6-1.6c0.2-0.1,1.6-1.1,1.7-1c0.2,0.1,0.2,2.3,0.2,2.6S-86,193-86.1,193.1L-86.1,193.1z"/>
<path style="fill:#CCCCCC;stroke:#333333;stroke-miterlimit:10;" d="M-22.5,193.1c0.2,0.1,1.6-0.9,1.8-1s1.5-1.2,1.5-1.5
	s-1.4-1.4-1.6-1.6c-0.2-0.1-1.6-1.1-1.7-1c-0.2,0.1-0.2,2.3-0.2,2.6S-22.7,193-22.5,193.1L-22.5,193.1z"/>
<rect x="-159.3" y="200.7" style="fill:#26C6DA;" width="24.5" height="5.1"/>
<path style="fill:#26C6DA;" d="M-159.2,205.7c-0.2,0.1-1.6-0.9-1.8-1s-1.5-1.2-1.5-1.5s1.4-1.4,1.6-1.6c0.2-0.1,1.6-1.1,1.7-1
	c0.2,0.1,0.2,2.3,0.2,2.6S-159.1,205.6-159.2,205.7L-159.2,205.7z"/>
<path style="fill:#26C6DA;" d="M-134.9,205.7c0.2,0.1,1.6-0.9,1.8-1s1.5-1.2,1.5-1.5s-1.4-1.4-1.6-1.6c-0.2-0.1-1.6-1.1-1.7-1
	c-0.2,0.1-0.2,2.3-0.2,2.6S-135.1,205.6-134.9,205.7L-134.9,205.7z"/>
<rect x="-124.5" y="200.2" style="fill:#FF7043;" width="64.3" height="5.1"/>
<path style="fill:#FF7043;" d="M-124.4,205.2c-0.2,0.1-1.6-0.9-1.8-1s-1.5-1.2-1.5-1.5s1.4-1.4,1.6-1.6c0.2-0.1,1.6-1.1,1.7-1
	c0.2,0.1,0.2,2.3,0.2,2.6C-124.2,203-124.2,205.1-124.4,205.2L-124.4,205.2z"/>
<path style="fill:#FF7043;" d="M-60.8,205.2c0.2,0.1,1.6-0.9,1.8-1s1.5-1.2,1.5-1.5s-1.4-1.4-1.6-1.6c-0.2-0.1-1.6-1.1-1.7-1
	c-0.2,0.1-0.2,2.3-0.2,2.6S-60.9,205.1-60.8,205.2L-60.8,205.2z"/>
<rect x="-159.3" y="210.2" style="fill:#26C6DA;" width="24.5" height="5.1"/>
<path style="fill:#26C6DA;" d="M-159.2,215.3c-0.2,0.1-1.6-0.9-1.8-1s-1.5-1.2-1.5-1.5s1.4-1.4,1.6-1.6c0.2-0.1,1.6-1.1,1.7-1
	c0.2,0.1,0.2,2.3,0.2,2.6C-159,213-159.1,215.2-159.2,215.3L-159.2,215.3z"/>
<path style="fill:#26C6DA;" d="M-134.9,215.3c0.2,0.1,1.6-0.9,1.8-1s1.5-1.2,1.5-1.5s-1.4-1.4-1.6-1.6c-0.2-0.1-1.6-1.1-1.7-1
	c-0.2,0.1-0.2,2.3-0.2,2.6C-135.1,213-135.1,215.2-134.9,215.3L-134.9,215.3z"/>
<rect x="-50.6" y="200.7" style="fill:#CCCCCC;stroke:#333333;stroke-miterlimit:10;" width="24.5" height="5.1"/>
<path style="fill:#CCCCCC;stroke:#333333;stroke-miterlimit:10;" d="M-50.5,205.7c-0.2,0.1-1.6-0.9-1.8-1s-1.5-1.2-1.5-1.5
	s1.4-1.4,1.6-1.6c0.2-0.1,1.6-1.1,1.7-1c0.2,0.1,0.2,2.3,0.2,2.6S-50.4,205.6-50.5,205.7L-50.5,205.7z"/>
<path style="fill:#CCCCCC;stroke:#333333;stroke-miterlimit:10;" d="M-26.2,205.7c0.2,0.1,1.6-0.9,1.8-1s1.5-1.2,1.5-1.5
	s-1.4-1.4-1.6-1.6c-0.2-0.1-1.6-1.1-1.7-1c-0.2,0.1-0.2,2.3-0.2,2.6C-26.4,203.5-26.3,205.6-26.2,205.7L-26.2,205.7z"/>
<rect x="-123.8" y="210.5" style="fill:#CCCCCC;stroke:#333333;stroke-miterlimit:10;" width="114" height="5.1"/>
<path style="fill:#CCCCCC;stroke:#333333;stroke-miterlimit:10;" d="M-123.7,215.5c-0.2,0.1-1.6-0.9-1.8-1s-1.5-1.2-1.5-1.5
	s1.4-1.4,1.5-1.6c0.2-0.1,1.5-1.1,1.7-1s0.2,2.3,0.2,2.6C-123.5,213.3-123.5,215.4-123.7,215.5L-123.7,215.5z"/>
<path style="fill:#CCCCCC;stroke:#333333;stroke-miterlimit:10;" d="M-10,215.5c0.2,0.1,1.6-0.9,1.8-1s1.5-1.2,1.5-1.5
	s-1.4-1.4-1.5-1.6c-0.2-0.1-1.5-1.1-1.7-1s-0.2,2.3-0.2,2.6C-10.2,213.3-10.2,215.4-10,215.5L-10,215.5z"/>
<rect x="-159.3" y="221.3" style="fill:#26C6DA;" width="24.5" height="5.1"/>
<path style="fill:#26C6DA;" d="M-159.2,226.4c-0.2,0.1-1.6-0.9-1.8-1s-1.5-1.2-1.5-1.5s1.4-1.4,1.6-1.6c0.2-0.1,1.6-1.1,1.7-1
	c0.2,0.1,0.2,2.3,0.2,2.6C-159,224.1-159.1,226.2-159.2,226.4L-159.2,226.4z"/>
<path style="fill:#26C6DA;" d="M-134.9,226.4c0.2,0.1,1.6-0.9,1.8-1s1.5-1.2,1.5-1.5s-1.4-1.4-1.6-1.6c-0.2-0.1-1.6-1.1-1.7-1
	c-0.2,0.1-0.2,2.3-0.2,2.6C-135.1,224.1-135.1,226.2-134.9,226.4L-134.9,226.4z"/>
<rect x="-124.5" y="220.8" style="fill:#FF7043;" width="64.3" height="5.1"/>
<path style="fill:#FF7043;" d="M-124.4,225.8c-0.2,0.1-1.6-0.9-1.8-1s-1.5-1.2-1.5-1.5s1.4-1.4,1.6-1.6c0.2-0.1,1.6-1.1,1.7-1
	c0.2,0.1,0.2,2.3,0.2,2.6C-124.2,223.6-124.2,225.7-124.4,225.8L-124.4,225.8z"/>
<path style="fill:#FF7043;" d="M-60.8,225.8c0.2,0.1,1.6-0.9,1.8-1s1.5-1.2,1.5-1.5s-1.4-1.4-1.6-1.6c-0.2-0.1-1.6-1.1-1.7-1
	c-0.2,0.1-0.2,2.3-0.2,2.6S-60.9,225.7-60.8,225.8L-60.8,225.8z"/>
<rect x="-50.6" y="221.3" style="fill:#CCCCCC;stroke:#333333;stroke-miterlimit:10;" width="24.5" height="5.1"/>
<path style="fill:#CCCCCC;stroke:#333333;stroke-miterlimit:10;" d="M-50.5,226.4c-0.2,0.1-1.6-0.9-1.8-1s-1.5-1.2-1.5-1.5
	s1.4-1.4,1.6-1.6c0.2-0.1,1.6-1.1,1.7-1c0.2,0.1,0.2,2.3,0.2,2.6C-50.3,224.1-50.4,226.2-50.5,226.4L-50.5,226.4z"/>
<path style="fill:#CCCCCC;stroke:#333333;stroke-miterlimit:10;" d="M-26.2,226.4c0.2,0.1,1.6-0.9,1.8-1s1.5-1.2,1.5-1.5
	s-1.4-1.4-1.6-1.6c-0.2-0.1-1.6-1.1-1.7-1c-0.2,0.1-0.2,2.3-0.2,2.6C-26.4,224.1-26.3,226.2-26.2,226.4L-26.2,226.4z"/>
<rect x="-160.4" y="231.8" style="fill:#26C6DA;" width="24.5" height="5.1"/>
<path style="fill:#26C6DA;" d="M-160.3,236.9c-0.2,0.1-1.6-0.9-1.8-1s-1.5-1.2-1.5-1.5s1.4-1.4,1.6-1.6c0.2-0.1,1.6-1.1,1.7-1
	c0.2,0.1,0.2,2.3,0.2,2.6C-160,234.6-160.1,236.7-160.3,236.9L-160.3,236.9z"/>
<path style="fill:#26C6DA;" d="M-135.9,236.9c0.2,0.1,1.6-0.9,1.8-1s1.5-1.2,1.5-1.5s-1.4-1.4-1.6-1.6c-0.2-0.1-1.6-1.1-1.7-1
	c-0.2,0.1-0.2,2.3-0.2,2.6C-136.1,234.6-136.1,236.7-135.9,236.9L-135.9,236.9z"/>
<rect x="-78.1" y="231.8" style="fill:#CCCCCC;stroke:#333333;stroke-miterlimit:10;" width="69.3" height="5.1"/>
<path style="fill:#CCCCCC;stroke:#333333;stroke-miterlimit:10;" d="M-78,236.9c-0.2,0.1-1.6-0.9-1.8-1s-1.5-1.2-1.5-1.5
	s1.4-1.4,1.6-1.6c0.2-0.1,1.6-1.1,1.7-1c0.2,0.1,0.2,2.3,0.2,2.6C-77.8,234.6-77.9,236.7-78,236.9L-78,236.9z"/>
<path style="fill:#CCCCCC;stroke:#333333;stroke-miterlimit:10;" d="M-9.1,236.9c0.2,0.1,1.6-0.9,1.8-1s1.5-1.2,1.5-1.5
	s-1.4-1.4-1.6-1.6c-0.2-0.1-1.6-1.1-1.7-1c-0.2,0.1-0.2,2.3-0.2,2.6C-9.3,234.6-9.3,236.7-9.1,236.9L-9.1,236.9z"/>
<rect x="-159.8" y="240.9" style="fill:#CCCCCC;stroke:#333333;stroke-miterlimit:10;" width="150.7" height="5.1"/>
<path style="fill:#CCCCCC;stroke:#333333;stroke-miterlimit:10;" d="M-159.6,245.9c-0.2,0.1-2.1-0.9-2.3-1s-2-1.2-1.9-1.5
	c0-0.3,1.8-1.4,2-1.6c0.2-0.1,2-1.1,2.2-1s0.3,2.3,0.3,2.6C-159.4,243.7-159.4,245.8-159.6,245.9L-159.6,245.9z"/>
<path style="fill:#CCCCCC;stroke:#333333;stroke-miterlimit:10;" d="M-9.5,245.9c0.2,0.1,2.1-0.9,2.3-1s2-1.2,1.9-1.5
	c0-0.3-1.8-1.4-2-1.6c-0.2-0.1-2-1.1-2.2-1s-0.3,2.3-0.3,2.6S-9.8,245.8-9.5,245.9L-9.5,245.9z"/>
<rect x="-159.8" y="249.4" style="fill:#CCCCCC;stroke:#333333;stroke-miterlimit:10;" width="150.7" height="5.1"/>
<path style="fill:#CCCCCC;stroke:#333333;stroke-miterlimit:10;" d="M-159.6,254.5c-0.2,0.1-2.1-0.9-2.3-1s-2-1.2-1.9-1.5
	c0-0.3,1.8-1.4,2-1.6c0.2-0.1,2-1.1,2.2-1s0.3,2.3,0.3,2.6C-159.4,252.2-159.4,254.4-159.6,254.5L-159.6,254.5z"/>
<path style="fill:#CCCCCC;stroke:#333333;stroke-miterlimit:10;" d="M-9.5,254.5c0.2,0.1,2.1-0.9,2.3-1s2-1.2,1.9-1.5
	c0-0.3-1.8-1.4-2-1.6c-0.2-0.1-2-1.1-2.2-1s-0.3,2.3-0.3,2.6C-9.8,252.2-9.8,254.4-9.5,254.5L-9.5,254.5z"/>
<rect x="-124.3" y="231.8" style="fill:#FF7043;" width="35.7" height="5.1"/>
<path style="fill:#FF7043;" d="M-124.2,236.9c-0.3,0.1-2.4-0.9-2.6-1s-2.2-1.2-2.2-1.5s2.1-1.4,2.3-1.6c0.2-0.1,2.3-1.1,2.5-1
	s0.3,2.3,0.3,2.6C-123.9,234.6-124,236.7-124.2,236.9L-124.2,236.9z"/>
<path style="fill:#FF7043;" d="M-88.7,236.9c0.3,0.1,2.4-0.9,2.6-1c0.2-0.1,2.2-1.2,2.2-1.5s-2.1-1.4-2.3-1.6
	c-0.2-0.1-2.3-1.1-2.5-1s-0.3,2.3-0.3,2.6C-89,234.6-88.9,236.7-88.7,236.9L-88.7,236.9z"/>
<rect x="-111.5" y="258" style="fill:#26C6DA;" width="24.5" height="5.1"/>
<path style="fill:#26C6DA;" d="M-87.1,263c0.2,0.1,1.6-0.9,1.8-1s1.5-1.2,1.5-1.5s-1.4-1.4-1.6-1.6c-0.2-0.1-1.6-1.1-1.7-1
	c-0.2,0.1-0.2,2.3-0.2,2.6C-87.4,260.8-87.3,262.9-87.1,263L-87.1,263z"/>
<path style="fill:#26C6DA;" d="M-111.5,263c-0.2,0.1-1.6-0.9-1.8-1s-1.5-1.2-1.5-1.5s1.4-1.4,1.6-1.6c0.2-0.1,1.6-1.1,1.7-1
	c0.2,0.1,0.2,2.3,0.2,2.6S-111.3,262.9-111.5,263L-111.5,263z"/>
<rect x="-158.8" y="258" style="fill:#FF7043;" width="35.7" height="5.1"/>
<path style="fill:#FF7043;" d="M-123.2,263c0.3,0.1,2.4-0.9,2.6-1c0.2-0.1,2.2-1.2,2.2-1.5s-2.1-1.4-2.3-1.6c-0.2-0.1-2.3-1.1-2.5-1
	s-0.3,2.3-0.3,2.6S-123.4,262.9-123.2,263L-123.2,263z"/>
<path style="fill:#FF7043;" d="M-158.7,263c-0.3,0.1-2.4-0.9-2.6-1s-2.2-1.2-2.2-1.5s2.1-1.4,2.3-1.6c0.2-0.1,2.3-1.1,2.5-1
	s0.3,2.3,0.3,2.6S-158.5,262.9-158.7,263L-158.7,263z"/>
</svg>
