<?xml version="1.0" encoding="iso-8859-1"?>
<!-- Generator: Adobe Illustrator 19.0.0, SVG Export Plug-In . SVG Version: 6.00 Build 0)  -->
<svg version="1.1" id="Layer_1" xmlns="http://www.w3.org/2000/svg" xmlns:xlink="http://www.w3.org/1999/xlink" x="0px" y="0px"
	 viewBox="0 0 128 128" style="enable-background:new 0 0 128 128;" xml:space="preserve">
<path id="XMLID_17_" style="fill:#FF5964;" d="M82.484,0.032c-22.458,0-41.101,16.281-44.803,37.681
	c2.537-0.439,5.141-0.681,7.803-0.681c25.12,0,45.484,20.364,45.484,45.484c0,2.662-0.242,5.267-0.681,7.803
	c21.4-3.702,37.681-22.346,37.681-44.803C127.968,20.396,107.604,0.032,82.484,0.032z"/>
<path id="XMLID_16_" style="fill:#35A7FF;" d="M37,45.516c0-2.662,0.242-5.267,0.681-7.803C16.281,41.415,0,60.058,0,82.516
	C0,107.636,20.364,128,45.484,128c22.458,0,41.101-16.281,44.803-37.681C87.751,90.758,85.146,91,82.484,91
	C57.364,91,37,70.636,37,45.516z"/>
<g id="XMLID_8_">
	<defs>
		<circle id="XMLID_6_" cx="45.484" cy="82.516" r="45.484"/>
	</defs>
	<clipPath id="XMLID_2_">
		<use xlink:href="#XMLID_6_"  style="overflow:visible;"/>
	</clipPath>
	<circle id="XMLID_7_" style="clip-path:url(#XMLID_2_);fill:#9084B9;" cx="82.484" cy="45.516" r="45.484"/>
</g>
<g id="XMLID_3_">
	<path id="XMLID_4_" style="fill:#FFFFFF;" d="M40.605,89.869c-0.25-0.3-0.326-0.699-0.225-1.2l10.424-49.125
		c0.1-0.55,0.324-0.975,0.676-1.275c0.35-0.3,0.773-0.45,1.275-0.45h1.5c0.699,0,1.174,0.3,1.424,0.9l18.826,42.825l8.924-42
		c0.1-0.5,0.338-0.912,0.713-1.238c0.375-0.324,0.813-0.487,1.313-0.487h1.35c0.5,0,0.875,0.15,1.125,0.45
		c0.25,0.3,0.324,0.725,0.225,1.275L77.73,88.594c-0.102,0.551-0.326,0.976-0.676,1.275s-0.775,0.45-1.275,0.45h-1.5
		c-0.699,0-1.174-0.3-1.424-0.9l-18.75-42.675l-8.925,41.925c-0.101,0.501-0.337,0.9-0.712,1.2s-0.813,0.45-1.313,0.45H41.73
		C41.23,90.319,40.855,90.169,40.605,89.869z"/>
</g>
</svg>
